<?xml version="1.0" encoding="UTF-8" standalone="no"?>
<!DOCTYPE svg PUBLIC "-//W3C//DTD SVG 1.1//EN" "http://www.w3.org/Graphics/SVG/1.1/DTD/svg11.dtd">
<svg width="100%" height="100%" viewBox="0 0 319 365" version="1.1" xmlns="http://www.w3.org/2000/svg" xmlns:xlink="http://www.w3.org/1999/xlink" xml:space="preserve" xmlns:serif="http://www.serif.com/" style="fill-rule:evenodd;clip-rule:evenodd;stroke-linecap:round;stroke-linejoin:round;stroke-miterlimit:1.5;">
    <g transform="matrix(1,0,0,1,-997.566,0)">
        <g transform="matrix(0.953409,0,0,0.98516,61.0968,43.4605)">
            <rect id="Artboard4" x="982.232" y="-44.115" width="334.101" height="370.035" style="fill:none;"/>
            <g id="Artboard41" serif:id="Artboard4">
                <g id="Layer5" transform="matrix(1.04887,0,0,1.01506,-681.43,-1580.19)">
                    <path d="M1767.39,1520.09C1776.86,1520.45 1781.38,1524.83 1781.38,1524.83C1781.38,1524.83 1891.34,1646.35 1893.83,1650.18C1896.32,1654.02 1898.71,1654.61 1899.04,1657.96C1899.37,1661.32 1884.85,1843.89 1884.12,1847.1C1883.38,1850.3 1883.47,1852.83 1879.5,1857.28C1875.53,1861.74 1867.93,1866.01 1863.74,1865.94C1859.56,1865.86 1627.44,1875.63 1622.38,1875.14C1617.32,1874.64 1606.34,1872.34 1603.08,1868.95C1599.81,1865.57 1594.23,1861.56 1594.41,1855.93C1594.59,1850.3 1609.36,1667.91 1609.18,1667.64C1609,1667.37 1608.93,1665.95 1610.57,1663.44C1612.22,1660.92 1744.23,1526.63 1749.72,1523.58C1755.2,1520.53 1757.92,1519.74 1767.39,1520.09Z" style="fill:url(#_Linear1);stroke:rgb(58,57,90);stroke-width:1.46px;"/>
                    <path d="M1627.27,1853.81L1630.13,1818.16L1870.7,1810.01L1867.68,1846.17L1627.27,1853.81Z" style="fill:rgb(38,38,38);stroke:rgb(58,57,90);stroke-width:1.46px;"/>
                    <path d="M1631.05,1807.99L1641.31,1674.46L1771.45,1544.45L1882.56,1668.85L1871.15,1799.33L1631.05,1807.99Z" style="fill:rgb(51,51,51);stroke:rgb(58,57,90);stroke-width:1.46px;"/>
                    <circle cx="1716.45" cy="1653.93" r="5.514" style="fill:rgb(140,62,90);"/>
                    <circle cx="1758.64" cy="1631.16" r="1.925" style="fill:rgb(140,62,90);"/>
                    <circle cx="1743.44" cy="1633.43" r="3.41" style="fill:rgb(140,62,90);"/>
                    <circle cx="1729.61" cy="1635.87" r="4.774" style="fill:rgb(140,62,90);"/>
                    <circle cx="1713.51" cy="1637.9" r="3.359" style="fill:rgb(140,62,90);"/>
                    <circle cx="1699.04" cy="1639.25" r="1.906" style="fill:rgb(140,62,90);"/>
                    <circle cx="1699.92" cy="1655.23" r="5.23" style="fill:rgb(140,62,90);"/>
                    <circle cx="1685.53" cy="1656.96" r="3.298" style="fill:rgb(140,62,90);"/>
                    <circle cx="1686.17" cy="1670.73" r="4.67" style="fill:rgb(140,62,90);"/>
                    <circle cx="1700.95" cy="1669.77" r="6.375" style="fill:rgb(140,62,90);"/>
                    <circle cx="1716.14" cy="1668.89" r="7.733" style="fill:rgb(140,62,90);"/>
                    <circle cx="1670.49" cy="1673.57" r="3.17" style="fill:rgb(140,62,90);"/>
                    <circle cx="1670.14" cy="1658.7" r="2.024" style="fill:rgb(140,62,90);"/>
                    <circle cx="1819.33" cy="1794.64" r="3.972" style="fill:rgb(140,62,90);"/>
                    <circle cx="1817.35" cy="1779.28" r="6.352" style="fill:rgb(140,62,90);"/>
                    <circle cx="1834.17" cy="1776.77" r="5.372" style="fill:rgb(140,62,90);"/>
                    <g transform="matrix(1,0,0,1,14.6424,-16.7832)">
                        <circle cx="1834.17" cy="1776.77" r="5.372" style="fill:rgb(140,62,90);"/>
                    </g>
                    <g transform="matrix(1,0,0,1,-30.1275,14.849)">
                        <circle cx="1834.17" cy="1776.77" r="5.372" style="fill:rgb(140,62,90);"/>
                    </g>
                    <circle cx="1831.71" cy="1762.58" r="5.272" style="fill:rgb(140,62,90);"/>
                    <g transform="matrix(1,0,0,1,14.6424,-16.7832)">
                        <circle cx="1831.71" cy="1762.58" r="5.272" style="fill:rgb(140,62,90);"/>
                    </g>
                    <g transform="matrix(1,0,0,1,-30.1275,14.849)">
                        <circle cx="1831.71" cy="1762.58" r="5.272" style="fill:rgb(140,62,90);"/>
                    </g>
                    <g transform="matrix(1,0,0,1,-16.5346,0.903258)">
                        <circle cx="1831.71" cy="1762.58" r="5.272" style="fill:rgb(140,62,90);"/>
                    </g>
                    <circle cx="1794.37" cy="1829.56" r="1.997" style="fill:rgb(140,62,90);"/>
                    <circle cx="1808.61" cy="1826.93" r="1.962" style="fill:rgb(140,62,90);"/>
                    <circle cx="1806.02" cy="1815.36" r="2.832" style="fill:rgb(140,62,90);"/>
                    <circle cx="1829.82" cy="1747.13" r="5.475" style="fill:rgb(140,62,90);"/>
                    <g transform="matrix(1,0,0,1,14.6424,-16.7832)">
                        <circle cx="1829.82" cy="1747.13" r="5.475" style="fill:rgb(140,62,90);"/>
                    </g>
                    <g transform="matrix(1,0,0,1,-30.1275,14.849)">
                        <circle cx="1829.82" cy="1747.13" r="5.475" style="fill:rgb(140,62,90);"/>
                    </g>
                    <g transform="matrix(1,0,0,1,-16.6696,2.55042)">
                        <circle cx="1829.82" cy="1747.13" r="5.475" style="fill:rgb(140,62,90);"/>
                    </g>
                    <circle cx="1827.22" cy="1732.77" r="7.394" style="fill:rgb(140,62,90);"/>
                    <g transform="matrix(1,0,0,1,14.6424,-16.7832)">
                        <circle cx="1827.22" cy="1732.77" r="7.394" style="fill:rgb(140,62,90);"/>
                    </g>
                    <g transform="matrix(1,0,0,1,-30.1275,14.849)">
                        <circle cx="1827.22" cy="1732.77" r="7.394" style="fill:rgb(140,62,90);"/>
                    </g>
                    <g transform="matrix(1,0,0,1,-16.6696,2.55042)">
                        <circle cx="1827.22" cy="1732.77" r="7.394" style="fill:rgb(140,62,90);"/>
                    </g>
                    <circle cx="1823.63" cy="1711.47" r="9.759" style="fill:rgb(140,62,90);"/>
                    <g transform="matrix(1,0,0,1,14.6424,-16.7832)">
                        <circle cx="1823.63" cy="1711.47" r="9.759" style="fill:rgb(140,62,90);"/>
                    </g>
                    <g transform="matrix(1,0,0,1,-30.1275,14.849)">
                        <circle cx="1823.63" cy="1711.47" r="9.759" style="fill:rgb(140,62,90);"/>
                    </g>
                    <circle cx="1836.41" cy="1789.91" r="3.908" style="fill:rgb(140,62,90);"/>
                    <g transform="matrix(1,0,0,1,14.6424,-16.7832)">
                        <circle cx="1836.41" cy="1789.91" r="3.908" style="fill:rgb(140,62,90);"/>
                    </g>
                    <g transform="matrix(1,0,0,1,-30.1275,14.849)">
                        <circle cx="1836.41" cy="1789.91" r="3.908" style="fill:rgb(140,62,90);"/>
                    </g>
                </g>
            </g>
        </g>
    </g>
    <defs>
        <linearGradient id="_Linear1" x1="0" y1="0" x2="1" y2="0" gradientUnits="userSpaceOnUse" gradientTransform="matrix(304.633,0,0,355.142,1594.41,1697.58)"><stop offset="0" style="stop-color:rgb(236,150,46);stop-opacity:1"/><stop offset="1" style="stop-color:rgb(213,72,56);stop-opacity:1"/></linearGradient>
    </defs>
</svg>
