<?xml version="1.0" encoding="UTF-8" standalone="no"?>
<!DOCTYPE svg PUBLIC "-//W3C//DTD SVG 1.1//EN" "http://www.w3.org/Graphics/SVG/1.1/DTD/svg11.dtd">
<svg width="100%" height="100%" viewBox="0 0 264 262" version="1.1" xmlns="http://www.w3.org/2000/svg" xmlns:xlink="http://www.w3.org/1999/xlink" xml:space="preserve" xmlns:serif="http://www.serif.com/" style="fill-rule:evenodd;clip-rule:evenodd;stroke-linecap:round;stroke-linejoin:round;stroke-miterlimit:1.5;">
    <g transform="matrix(1,0,0,1,-331,-57.5088)">
        <g transform="matrix(0.930719,0,0,0.97619,22.0795,39.87)">
            <rect id="Artboard2" x="331.916" y="18.069" width="283.406" height="267.853" style="fill:none;"/>
            <g id="Artboard21" serif:id="Artboard2">
                <g id="Layer2" transform="matrix(1.07444,0,0,1.02439,-656.121,-1591.03)">
                    <g id="bigCircle" transform="matrix(1,0,0,1,0.126125,-5.79148)">
                        <circle cx="1052.34" cy="1707.08" r="126.895" style="fill:rgb(51,51,51);stroke:rgb(84,84,84);stroke-width:1.46px;"/>
                    </g>
                    <g transform="matrix(0.688547,0,0,0.688547,324.352,525.902)">
                        <circle cx="1052.34" cy="1707.08" r="126.895" style="fill:rgb(255,114,108);stroke:rgb(215,79,74);stroke-width:2.12px;"/>
                    </g>
                    <circle cx="1114.19" cy="1661.27" r="4.039" style="fill:rgb(252,155,74);stroke:rgb(202,91,86);stroke-width:1px;"/>
                    <circle cx="1120.2" cy="1672.02" r="4.058" style="fill:rgb(252,155,74);stroke:rgb(202,91,86);stroke-width:1px;"/>
                    <circle cx="1125.26" cy="1684.77" r="3.587" style="fill:rgb(252,155,74);stroke:rgb(202,91,86);stroke-width:1px;"/>
                    <circle cx="1131.27" cy="1695.65" r="3.366" style="fill:rgb(252,155,74);stroke:rgb(202,91,86);stroke-width:1px;"/>
                    <circle cx="1137.03" cy="1706.89" r="2.195" style="fill:rgb(252,155,74);stroke:rgb(202,91,86);stroke-width:1px;"/>
                    <ellipse cx="1142.98" cy="1719.31" rx="1.716" ry="1.477" style="fill:rgb(252,155,74);stroke:rgb(202,91,86);stroke-width:1px;"/>
                    <g transform="matrix(1,0,0,1,-4.43209,10.5991)">
                        <ellipse cx="1142.98" cy="1719.31" rx="1.716" ry="1.477" style="fill:rgb(252,155,74);stroke:rgb(202,91,86);stroke-width:1px;"/>
                    </g>
                    <g transform="matrix(1,0,0,1,-10.3101,24.1663)">
                        <ellipse cx="1142.98" cy="1719.31" rx="1.716" ry="1.477" style="fill:rgb(252,155,74);stroke:rgb(202,91,86);stroke-width:1px;"/>
                    </g>
                    <g transform="matrix(1,0,0,1,-10.5744,46.044)">
                        <ellipse cx="1142.98" cy="1719.31" rx="1.716" ry="1.477" style="fill:rgb(252,155,74);stroke:rgb(202,91,86);stroke-width:1px;"/>
                    </g>
                    <g transform="matrix(1,0,0,1,-17.5989,57.9792)">
                        <ellipse cx="1142.98" cy="1719.31" rx="1.716" ry="1.477" style="fill:rgb(252,155,74);stroke:rgb(202,91,86);stroke-width:1px;"/>
                    </g>
                    <g transform="matrix(-0.999652,-0.0263836,0.0263836,-0.999652,2066.05,3412)">
                        <ellipse cx="1142.98" cy="1719.31" rx="1.716" ry="1.477" style="fill:rgb(252,155,74);stroke:rgb(202,91,86);stroke-width:1px;"/>
                    </g>
                    <g transform="matrix(-0.999652,-0.0263836,0.0263836,-0.999652,2068.43,3390.08)">
                        <ellipse cx="1142.98" cy="1719.31" rx="1.716" ry="1.477" style="fill:rgb(252,155,74);stroke:rgb(202,91,86);stroke-width:1px;"/>
                    </g>
                    <g transform="matrix(-0.999652,-0.0263836,0.0263836,-0.999652,2060.22,3425.29)">
                        <ellipse cx="1142.98" cy="1719.31" rx="1.716" ry="1.477" style="fill:rgb(252,155,74);stroke:rgb(202,91,86);stroke-width:1px;"/>
                    </g>
                    <g transform="matrix(-0.999652,-0.0263836,0.0263836,-0.999652,2059.5,3444.77)">
                        <ellipse cx="1142.98" cy="1719.31" rx="1.716" ry="1.477" style="fill:rgb(252,155,74);stroke:rgb(202,91,86);stroke-width:1px;"/>
                    </g>
                    <g transform="matrix(-0.999652,-0.0263836,0.0263836,-0.999652,2054.89,3457.98)">
                        <ellipse cx="1142.98" cy="1719.31" rx="1.716" ry="1.477" style="fill:rgb(252,155,74);stroke:rgb(202,91,86);stroke-width:1px;"/>
                    </g>
                    <g transform="matrix(-0.999652,-0.0263836,0.0263836,-0.999652,2054.61,3436.61)">
                        <ellipse cx="1142.98" cy="1719.31" rx="1.716" ry="1.477" style="fill:rgb(252,155,74);stroke:rgb(202,91,86);stroke-width:1px;"/>
                    </g>
                    <g transform="matrix(-0.999652,-0.0263836,0.0263836,-0.999652,2050,3449.82)">
                        <ellipse cx="1142.98" cy="1719.31" rx="1.716" ry="1.477" style="fill:rgb(252,155,74);stroke:rgb(202,91,86);stroke-width:1px;"/>
                    </g>
                    <g transform="matrix(-0.999652,-0.0263836,0.0263836,-0.999652,2071.41,3370.24)">
                        <ellipse cx="1142.98" cy="1719.31" rx="1.716" ry="1.477" style="fill:rgb(252,155,74);stroke:rgb(202,91,86);stroke-width:1px;"/>
                    </g>
                    <g transform="matrix(-0.999652,-0.0263836,0.0263836,-0.999652,2064.47,3431.45)">
                        <ellipse cx="1142.98" cy="1719.31" rx="1.716" ry="1.477" style="fill:rgb(252,155,74);stroke:rgb(202,91,86);stroke-width:1px;"/>
                    </g>
                    <g transform="matrix(-0.999652,-0.0263836,0.0263836,-0.999652,2063.89,3451.94)">
                        <ellipse cx="1142.98" cy="1719.31" rx="1.716" ry="1.477" style="fill:rgb(252,155,74);stroke:rgb(202,91,86);stroke-width:1px;"/>
                    </g>
                    <g transform="matrix(-0.999652,-0.0263836,0.0263836,-0.999652,2059.29,3465.15)">
                        <ellipse cx="1142.98" cy="1719.31" rx="1.716" ry="1.477" style="fill:rgb(252,155,74);stroke:rgb(202,91,86);stroke-width:1px;"/>
                    </g>
                    <circle cx="1143.43" cy="1690.2" r="2.119" style="fill:rgb(252,155,74);stroke:rgb(202,91,86);stroke-width:1px;"/>
                    <g transform="matrix(1,0,0,1,-5.87796,13.5672)">
                        <circle cx="1143.43" cy="1690.2" r="2.119" style="fill:rgb(252,155,74);stroke:rgb(202,91,86);stroke-width:1px;"/>
                    </g>
                    <g transform="matrix(1,0,0,1,-6.14233,35.4449)">
                        <circle cx="1143.43" cy="1690.2" r="2.119" style="fill:rgb(252,155,74);stroke:rgb(202,91,86);stroke-width:1px;"/>
                    </g>
                    <g transform="matrix(1,0,0,1,-13.1668,47.3801)">
                        <circle cx="1143.43" cy="1690.2" r="2.119" style="fill:rgb(252,155,74);stroke:rgb(202,91,86);stroke-width:1px;"/>
                    </g>
                    <circle cx="1137.37" cy="1678.24" r="2.585" style="fill:rgb(252,155,74);stroke:rgb(202,91,86);stroke-width:1px;"/>
                    <g transform="matrix(1,0,0,1,-5.87796,13.5672)">
                        <circle cx="1137.37" cy="1678.24" r="2.585" style="fill:rgb(252,155,74);stroke:rgb(202,91,86);stroke-width:1px;"/>
                    </g>
                    <g transform="matrix(1,0,0,1,-6.14233,35.4449)">
                        <circle cx="1137.37" cy="1678.24" r="2.585" style="fill:rgb(252,155,74);stroke:rgb(202,91,86);stroke-width:1px;"/>
                    </g>
                    <g transform="matrix(1,0,0,1,-13.1668,47.3801)">
                        <circle cx="1137.37" cy="1678.24" r="2.585" style="fill:rgb(252,155,74);stroke:rgb(202,91,86);stroke-width:1px;"/>
                    </g>
                    <circle cx="1109.45" cy="1674.9" r="3.993" style="fill:rgb(252,155,74);stroke:rgb(202,91,86);stroke-width:1px;"/>
                    <g transform="matrix(1,0,0,1,-5.87796,13.5672)">
                        <circle cx="1109.45" cy="1674.9" r="3.993" style="fill:rgb(252,155,74);stroke:rgb(202,91,86);stroke-width:1px;"/>
                    </g>
                    <g transform="matrix(1,0,0,1,-6.14233,35.4449)">
                        <circle cx="1109.45" cy="1674.9" r="3.993" style="fill:rgb(252,155,74);stroke:rgb(202,91,86);stroke-width:1px;"/>
                    </g>
                    <g transform="matrix(1,0,0,1,-13.1668,47.3801)">
                        <circle cx="1109.45" cy="1674.9" r="3.993" style="fill:rgb(252,155,74);stroke:rgb(202,91,86);stroke-width:1px;"/>
                    </g>
                    <g transform="matrix(-0.999652,-0.0263836,0.0263836,-0.999652,2061.34,3422.48)">
                        <circle cx="1109.45" cy="1674.9" r="3.993" style="fill:rgb(252,155,74);stroke:rgb(202,91,86);stroke-width:1px;"/>
                    </g>
                    <g transform="matrix(-0.999652,-0.0263836,0.0263836,-0.999652,2063.72,3400.56)">
                        <circle cx="1109.45" cy="1674.9" r="3.993" style="fill:rgb(252,155,74);stroke:rgb(202,91,86);stroke-width:1px;"/>
                    </g>
                    <g transform="matrix(-0.999652,-0.0263836,0.0263836,-0.999652,2066.7,3380.72)">
                        <circle cx="1109.45" cy="1674.9" r="3.993" style="fill:rgb(252,155,74);stroke:rgb(202,91,86);stroke-width:1px;"/>
                    </g>
                    <g transform="matrix(-0.999652,-0.0263836,0.0263836,-0.999652,2059.76,3441.93)">
                        <circle cx="1109.45" cy="1674.9" r="3.993" style="fill:rgb(252,155,74);stroke:rgb(202,91,86);stroke-width:1px;"/>
                    </g>
                    <g transform="matrix(-0.999652,-0.0263836,0.0263836,-0.999652,2059.18,3462.42)">
                        <circle cx="1109.45" cy="1674.9" r="3.993" style="fill:rgb(252,155,74);stroke:rgb(202,91,86);stroke-width:1px;"/>
                    </g>
                    <g transform="matrix(-0.999652,-0.0263836,0.0263836,-0.999652,2054.58,3475.63)">
                        <circle cx="1109.45" cy="1674.9" r="3.993" style="fill:rgb(252,155,74);stroke:rgb(202,91,86);stroke-width:1px;"/>
                    </g>
                    <circle cx="1114.66" cy="1685.98" r="4.155" style="fill:rgb(252,155,74);stroke:rgb(202,91,86);stroke-width:1px;"/>
                    <g transform="matrix(1,0,0,1,-5.87796,13.5672)">
                        <circle cx="1114.66" cy="1685.98" r="4.155" style="fill:rgb(252,155,74);stroke:rgb(202,91,86);stroke-width:1px;"/>
                    </g>
                    <g transform="matrix(1,0,0,1,-6.14233,35.4449)">
                        <circle cx="1114.66" cy="1685.98" r="4.155" style="fill:rgb(252,155,74);stroke:rgb(202,91,86);stroke-width:1px;"/>
                    </g>
                    <g transform="matrix(1,0,0,1,-13.1668,47.3801)">
                        <circle cx="1114.66" cy="1685.98" r="4.155" style="fill:rgb(252,155,74);stroke:rgb(202,91,86);stroke-width:1px;"/>
                    </g>
                    <g transform="matrix(-0.999652,-0.0263836,0.0263836,-0.999652,2061.34,3422.48)">
                        <circle cx="1114.66" cy="1685.98" r="4.155" style="fill:rgb(252,155,74);stroke:rgb(202,91,86);stroke-width:1px;"/>
                    </g>
                    <g transform="matrix(-0.999652,-0.0263836,0.0263836,-0.999652,2063.72,3400.56)">
                        <circle cx="1114.66" cy="1685.98" r="4.155" style="fill:rgb(252,155,74);stroke:rgb(202,91,86);stroke-width:1px;"/>
                    </g>
                    <g transform="matrix(-0.999652,-0.0263836,0.0263836,-0.999652,2066.7,3380.72)">
                        <circle cx="1114.66" cy="1685.98" r="4.155" style="fill:rgb(252,155,74);stroke:rgb(202,91,86);stroke-width:1px;"/>
                    </g>
                    <g transform="matrix(-0.999652,-0.0263836,0.0263836,-0.999652,2059.76,3441.93)">
                        <circle cx="1114.66" cy="1685.98" r="4.155" style="fill:rgb(252,155,74);stroke:rgb(202,91,86);stroke-width:1px;"/>
                    </g>
                    <g transform="matrix(-0.999652,-0.0263836,0.0263836,-0.999652,2059.18,3462.42)">
                        <circle cx="1114.66" cy="1685.98" r="4.155" style="fill:rgb(252,155,74);stroke:rgb(202,91,86);stroke-width:1px;"/>
                    </g>
                    <g transform="matrix(-0.999652,-0.0263836,0.0263836,-0.999652,2054.58,3475.63)">
                        <circle cx="1114.66" cy="1685.98" r="4.155" style="fill:rgb(252,155,74);stroke:rgb(202,91,86);stroke-width:1px;"/>
                    </g>
                    <circle cx="1120.03" cy="1696.21" r="3.954" style="fill:rgb(252,155,74);stroke:rgb(202,91,86);stroke-width:1px;"/>
                    <g transform="matrix(1,0,0,1,-5.87796,13.5672)">
                        <circle cx="1120.03" cy="1696.21" r="3.954" style="fill:rgb(252,155,74);stroke:rgb(202,91,86);stroke-width:1px;"/>
                    </g>
                    <g transform="matrix(1,0,0,1,-6.14233,35.4449)">
                        <circle cx="1120.03" cy="1696.21" r="3.954" style="fill:rgb(252,155,74);stroke:rgb(202,91,86);stroke-width:1px;"/>
                    </g>
                    <g transform="matrix(1,0,0,1,-13.1668,47.3801)">
                        <circle cx="1120.03" cy="1696.21" r="3.954" style="fill:rgb(252,155,74);stroke:rgb(202,91,86);stroke-width:1px;"/>
                    </g>
                    <g transform="matrix(-0.999652,-0.0263836,0.0263836,-0.999652,2061.34,3422.48)">
                        <circle cx="1120.03" cy="1696.21" r="3.954" style="fill:rgb(252,155,74);stroke:rgb(202,91,86);stroke-width:1px;"/>
                    </g>
                    <g transform="matrix(-0.999652,-0.0263836,0.0263836,-0.999652,2063.72,3400.56)">
                        <circle cx="1120.03" cy="1696.21" r="3.954" style="fill:rgb(252,155,74);stroke:rgb(202,91,86);stroke-width:1px;"/>
                    </g>
                    <g transform="matrix(-0.999652,-0.0263836,0.0263836,-0.999652,2066.7,3380.72)">
                        <circle cx="1120.03" cy="1696.21" r="3.954" style="fill:rgb(252,155,74);stroke:rgb(202,91,86);stroke-width:1px;"/>
                    </g>
                    <g transform="matrix(-0.999652,-0.0263836,0.0263836,-0.999652,2059.76,3441.93)">
                        <circle cx="1120.03" cy="1696.21" r="3.954" style="fill:rgb(252,155,74);stroke:rgb(202,91,86);stroke-width:1px;"/>
                    </g>
                    <g transform="matrix(-0.999652,-0.0263836,0.0263836,-0.999652,2059.18,3462.42)">
                        <circle cx="1120.03" cy="1696.21" r="3.954" style="fill:rgb(252,155,74);stroke:rgb(202,91,86);stroke-width:1px;"/>
                    </g>
                    <g transform="matrix(-0.999652,-0.0263836,0.0263836,-0.999652,2054.58,3475.63)">
                        <circle cx="1120.03" cy="1696.21" r="3.954" style="fill:rgb(252,155,74);stroke:rgb(202,91,86);stroke-width:1px;"/>
                    </g>
                    <g transform="matrix(1,0,0,1,0.769423,-6.33914)">
                        <circle cx="1124.63" cy="1712.35" r="3.942" style="fill:rgb(252,155,74);stroke:rgb(202,91,86);stroke-width:1px;"/>
                    </g>
                    <g transform="matrix(1,0,0,1,-5.10854,7.22806)">
                        <circle cx="1124.63" cy="1712.35" r="3.942" style="fill:rgb(252,155,74);stroke:rgb(202,91,86);stroke-width:1px;"/>
                    </g>
                    <g transform="matrix(1,0,0,1,-5.3729,29.1058)">
                        <circle cx="1124.63" cy="1712.35" r="3.942" style="fill:rgb(252,155,74);stroke:rgb(202,91,86);stroke-width:1px;"/>
                    </g>
                    <g transform="matrix(1,0,0,1,-12.3974,41.041)">
                        <circle cx="1124.63" cy="1712.35" r="3.942" style="fill:rgb(252,155,74);stroke:rgb(202,91,86);stroke-width:1px;"/>
                    </g>
                    <g transform="matrix(-0.999652,-0.0263836,0.0263836,-0.999652,2060.4,3428.8)">
                        <circle cx="1124.63" cy="1712.35" r="3.942" style="fill:rgb(252,155,74);stroke:rgb(202,91,86);stroke-width:1px;"/>
                    </g>
                    <g transform="matrix(-0.999652,-0.0263836,0.0263836,-0.999652,2062.78,3406.88)">
                        <circle cx="1124.63" cy="1712.35" r="3.942" style="fill:rgb(252,155,74);stroke:rgb(202,91,86);stroke-width:1px;"/>
                    </g>
                    <g transform="matrix(-0.999652,-0.0263836,0.0263836,-0.999652,2065.76,3387.04)">
                        <circle cx="1124.63" cy="1712.35" r="3.942" style="fill:rgb(252,155,74);stroke:rgb(202,91,86);stroke-width:1px;"/>
                    </g>
                    <g transform="matrix(-0.999652,-0.0263836,0.0263836,-0.999652,2058.82,3448.25)">
                        <circle cx="1124.63" cy="1712.35" r="3.942" style="fill:rgb(252,155,74);stroke:rgb(202,91,86);stroke-width:1px;"/>
                    </g>
                    <g transform="matrix(-0.999652,-0.0263836,0.0263836,-0.999652,2058.25,3468.74)">
                        <circle cx="1124.63" cy="1712.35" r="3.942" style="fill:rgb(252,155,74);stroke:rgb(202,91,86);stroke-width:1px;"/>
                    </g>
                    <g transform="matrix(-0.999652,-0.0263836,0.0263836,-0.999652,2053.64,3481.94)">
                        <circle cx="1124.63" cy="1712.35" r="3.942" style="fill:rgb(252,155,74);stroke:rgb(202,91,86);stroke-width:1px;"/>
                    </g>
                    <g transform="matrix(1,0,0,1,-0.146714,-8.82428)">
                        <circle cx="1130.2" cy="1724.7" r="2.786" style="fill:rgb(252,155,74);stroke:rgb(202,91,86);stroke-width:1px;"/>
                    </g>
                    <g transform="matrix(1,0,0,1,-6.02468,4.74291)">
                        <circle cx="1130.2" cy="1724.7" r="2.786" style="fill:rgb(252,155,74);stroke:rgb(202,91,86);stroke-width:1px;"/>
                    </g>
                    <g transform="matrix(1,0,0,1,-6.28904,26.6206)">
                        <circle cx="1130.2" cy="1724.7" r="2.786" style="fill:rgb(252,155,74);stroke:rgb(202,91,86);stroke-width:1px;"/>
                    </g>
                    <g transform="matrix(1,0,0,1,-13.3135,38.5558)">
                        <circle cx="1130.2" cy="1724.7" r="2.786" style="fill:rgb(252,155,74);stroke:rgb(202,91,86);stroke-width:1px;"/>
                    </g>
                    <g transform="matrix(-0.999652,-0.0263836,0.0263836,-0.999652,2061.25,3431.3)">
                        <circle cx="1130.2" cy="1724.7" r="2.786" style="fill:rgb(252,155,74);stroke:rgb(202,91,86);stroke-width:1px;"/>
                    </g>
                    <g transform="matrix(-0.999652,-0.0263836,0.0263836,-0.999652,2063.63,3409.39)">
                        <circle cx="1130.2" cy="1724.7" r="2.786" style="fill:rgb(252,155,74);stroke:rgb(202,91,86);stroke-width:1px;"/>
                    </g>
                    <g transform="matrix(-0.999652,-0.0263836,0.0263836,-0.999652,2066.61,3389.55)">
                        <circle cx="1130.2" cy="1724.7" r="2.786" style="fill:rgb(252,155,74);stroke:rgb(202,91,86);stroke-width:1px;"/>
                    </g>
                    <g transform="matrix(-0.999652,-0.0263836,0.0263836,-0.999652,2059.67,3450.75)">
                        <circle cx="1130.2" cy="1724.7" r="2.786" style="fill:rgb(252,155,74);stroke:rgb(202,91,86);stroke-width:1px;"/>
                    </g>
                    <g transform="matrix(-0.999652,-0.0263836,0.0263836,-0.999652,2059.1,3471.25)">
                        <circle cx="1130.2" cy="1724.7" r="2.786" style="fill:rgb(252,155,74);stroke:rgb(202,91,86);stroke-width:1px;"/>
                    </g>
                    <g transform="matrix(-0.999652,-0.0263836,0.0263836,-0.999652,2054.49,3484.45)">
                        <circle cx="1130.2" cy="1724.7" r="2.786" style="fill:rgb(252,155,74);stroke:rgb(202,91,86);stroke-width:1px;"/>
                    </g>
                    <g transform="matrix(1,0,0,1,-2.82746,-13.4767)">
                        <circle cx="1137.09" cy="1736.14" r="2.022" style="fill:rgb(252,155,74);stroke:rgb(202,91,86);stroke-width:1px;"/>
                    </g>
                    <g transform="matrix(1,0,0,1,-8.70542,0.0905331)">
                        <circle cx="1137.09" cy="1736.14" r="2.022" style="fill:rgb(252,155,74);stroke:rgb(202,91,86);stroke-width:1px;"/>
                    </g>
                    <g transform="matrix(1,0,0,1,-8.96978,21.9683)">
                        <circle cx="1137.09" cy="1736.14" r="2.022" style="fill:rgb(252,155,74);stroke:rgb(202,91,86);stroke-width:1px;"/>
                    </g>
                    <g transform="matrix(1,0,0,1,-15.9943,33.9034)">
                        <circle cx="1137.09" cy="1736.14" r="2.022" style="fill:rgb(252,155,74);stroke:rgb(202,91,86);stroke-width:1px;"/>
                    </g>
                    <g transform="matrix(-0.999652,-0.0263836,0.0263836,-0.999652,2063.81,3436.03)">
                        <circle cx="1137.09" cy="1736.14" r="2.022" style="fill:rgb(252,155,74);stroke:rgb(202,91,86);stroke-width:1px;"/>
                    </g>
                    <g transform="matrix(-0.999652,-0.0263836,0.0263836,-0.999652,2066.19,3414.11)">
                        <circle cx="1137.09" cy="1736.14" r="2.022" style="fill:rgb(252,155,74);stroke:rgb(202,91,86);stroke-width:1px;"/>
                    </g>
                    <g transform="matrix(-0.999652,-0.0263836,0.0263836,-0.999652,2069.17,3394.27)">
                        <circle cx="1137.09" cy="1736.14" r="2.022" style="fill:rgb(252,155,74);stroke:rgb(202,91,86);stroke-width:1px;"/>
                    </g>
                    <g transform="matrix(-0.999652,-0.0263836,0.0263836,-0.999652,2062.23,3455.48)">
                        <circle cx="1137.09" cy="1736.14" r="2.022" style="fill:rgb(252,155,74);stroke:rgb(202,91,86);stroke-width:1px;"/>
                    </g>
                    <g transform="matrix(-0.999652,-0.0263836,0.0263836,-0.999652,2061.65,3475.97)">
                        <circle cx="1137.09" cy="1736.14" r="2.022" style="fill:rgb(252,155,74);stroke:rgb(202,91,86);stroke-width:1px;"/>
                    </g>
                    <g transform="matrix(-0.999652,-0.0263836,0.0263836,-0.999652,2057.05,3489.17)">
                        <circle cx="1137.09" cy="1736.14" r="2.022" style="fill:rgb(252,155,74);stroke:rgb(202,91,86);stroke-width:1px;"/>
                    </g>
                </g>
            </g>
        </g>
    </g>
</svg>
