<?xml version="1.0" encoding="UTF-8" standalone="no"?>
<!DOCTYPE svg PUBLIC "-//W3C//DTD SVG 1.1//EN" "http://www.w3.org/Graphics/SVG/1.1/DTD/svg11.dtd">
<svg width="100%" height="100%" viewBox="0 0 254 254" version="1.1" xmlns="http://www.w3.org/2000/svg" xmlns:xlink="http://www.w3.org/1999/xlink" xml:space="preserve" xmlns:serif="http://www.serif.com/" style="fill-rule:evenodd;clip-rule:evenodd;stroke-linecap:round;stroke-linejoin:round;stroke-miterlimit:1.5;">
    <g transform="matrix(1,0,0,1,-651.372,-71.253)">
        <g transform="matrix(0.951596,0,0,0.981655,37.2981,44.5683)">
            <rect id="Artboard3" x="645.309" y="27.183" width="266.165" height="258.613" style="fill:none;"/>
            <g id="Artboard31" serif:id="Artboard3">
                <g id="Layer4" transform="matrix(1.04947,0.0524899,-0.054148,1.01733,-563.169,-1656.38)">
                    <g transform="matrix(0.999021,-0.0442429,0.0442429,0.999021,-70.1658,62.8758)">
                        <path d="M1484.45,1649.03C1484.45,1615.39 1457.14,1588.08 1423.5,1588.08L1301.59,1588.08C1267.95,1588.08 1240.64,1615.39 1240.64,1649.03L1240.64,1770.94C1240.64,1804.58 1267.95,1831.89 1301.59,1831.89L1423.5,1831.89C1457.14,1831.89 1484.45,1804.58 1484.45,1770.94L1484.45,1649.03Z" style="fill:rgb(155,210,25);stroke:rgb(108,140,32);stroke-width:1.46px;"/>
                    </g>
                    <g transform="matrix(1,0,0,1,-4.92159,0.467965)">
                        <circle cx="1372.81" cy="1711.32" r="84.964" style="fill:rgb(69,57,90);stroke:rgb(58,57,90);stroke-width:1.46px;"/>
                    </g>
                    <circle cx="1434.91" cy="1778.35" r="3.503" style="fill:rgb(69,57,90);stroke:rgb(58,57,90);stroke-width:1.46px;"/>
                    <circle cx="1443.71" cy="1760.66" r="3.393" style="fill:rgb(69,57,90);stroke:rgb(58,57,90);stroke-width:1.46px;"/>
                    <circle cx="1454.33" cy="1742.33" r="3.27" style="fill:rgb(69,57,90);stroke:rgb(58,57,90);stroke-width:1.46px;"/>
                    <circle cx="1463.25" cy="1725.44" r="3.405" style="fill:rgb(69,57,90);stroke:rgb(58,57,90);stroke-width:1.46px;"/>
                    <circle cx="1445.93" cy="1672.27" r="3.031" style="fill:rgb(69,57,90);stroke:rgb(58,57,90);stroke-width:1.46px;"/>
                    <circle cx="1449.43" cy="1685.84" r="3.855" style="fill:rgb(69,57,90);stroke:rgb(58,57,90);stroke-width:1.46px;"/>
                    <circle cx="1467.88" cy="1694.27" r="1.65" style="fill:rgb(69,57,90);stroke:rgb(58,57,90);stroke-width:1.46px;"/>
                    <circle cx="1443.31" cy="1657.8" r="1.617" style="fill:rgb(69,57,90);stroke:rgb(58,57,90);stroke-width:1.46px;"/>
                    <circle cx="1463.84" cy="1680.31" r="1.769" style="fill:rgb(69,57,90);stroke:rgb(58,57,90);stroke-width:1.46px;"/>
                    <circle cx="1476.26" cy="1720.72" r="1.596" style="fill:rgb(69,57,90);stroke:rgb(58,57,90);stroke-width:1.46px;"/>
                    <circle cx="1412.65" cy="1799.52" r="2.894" style="fill:rgb(69,57,90);stroke:rgb(58,57,90);stroke-width:1.46px;"/>
                    <circle cx="1399.29" cy="1803.62" r="2.033" style="fill:rgb(69,57,90);stroke:rgb(58,57,90);stroke-width:1.46px;"/>
                    <circle cx="1386.08" cy="1807.87" r="1.487" style="fill:rgb(69,57,90);stroke:rgb(58,57,90);stroke-width:1.46px;"/>
                    <circle cx="1425.48" cy="1795.86" r="2.21" style="fill:rgb(69,57,90);stroke:rgb(58,57,90);stroke-width:1.46px;"/>
                    <circle cx="1438.97" cy="1791.71" r="2.112" style="fill:rgb(69,57,90);stroke:rgb(58,57,90);stroke-width:1.46px;"/>
                    <circle cx="1420.74" cy="1781.29" r="4.711" style="fill:rgb(69,57,90);stroke:rgb(58,57,90);stroke-width:1.46px;"/>
                    <circle cx="1435.22" cy="1777.39" r="3.36" style="fill:rgb(69,57,90);stroke:rgb(58,57,90);stroke-width:1.46px;"/>
                    <circle cx="1445.1" cy="1760.18" r="3.552" style="fill:rgb(69,57,90);stroke:rgb(58,57,90);stroke-width:1.46px;"/>
                    <circle cx="1448.12" cy="1773.51" r="2.425" style="fill:rgb(69,57,90);stroke:rgb(58,57,90);stroke-width:1.46px;"/>
                    <circle cx="1355.33" cy="1803.07" r="1.948" style="fill:rgb(69,57,90);stroke:rgb(58,57,90);stroke-width:1.46px;"/>
                    <circle cx="1337.43" cy="1793.33" r="1.545" style="fill:rgb(69,57,90);stroke:rgb(58,57,90);stroke-width:1.46px;"/>
                    <circle cx="1320.57" cy="1784.25" r="1.631" style="fill:rgb(69,57,90);stroke:rgb(58,57,90);stroke-width:1.46px;"/>
                    <circle cx="1299.76" cy="1761.82" r="2.591" style="fill:rgb(69,57,90);stroke:rgb(58,57,90);stroke-width:1.46px;"/>
                    <circle cx="1295.23" cy="1747.58" r="3.581" style="fill:rgb(69,57,90);stroke:rgb(58,57,90);stroke-width:1.46px;"/>
                    <circle cx="1292.48" cy="1734.98" r="3.666" style="fill:rgb(69,57,90);stroke:rgb(58,57,90);stroke-width:1.46px;"/>
                    <ellipse cx="1278.6" cy="1739.29" rx="2.517" ry="0.655" style="fill:rgb(69,57,90);stroke:rgb(58,57,90);stroke-width:1.46px;"/>
                    <circle cx="1283.98" cy="1707.1" r="3.13" style="fill:rgb(69,57,90);stroke:rgb(58,57,90);stroke-width:1.46px;"/>
                    <circle cx="1279.76" cy="1694.62" r="2.968" style="fill:rgb(69,57,90);stroke:rgb(58,57,90);stroke-width:1.46px;"/>
                    <circle cx="1289.6" cy="1676.15" r="2.971" style="fill:rgb(69,57,90);stroke:rgb(58,57,90);stroke-width:1.46px;"/>
                    <circle cx="1297.79" cy="1658.65" r="3.224" style="fill:rgb(69,57,90);stroke:rgb(58,57,90);stroke-width:1.46px;"/>
                    <circle cx="1284.21" cy="1662.77" r="2.447" style="fill:rgb(69,57,90);stroke:rgb(58,57,90);stroke-width:1.46px;"/>
                    <circle cx="1276.28" cy="1681.35" r="1.842" style="fill:rgb(69,57,90);stroke:rgb(58,57,90);stroke-width:1.46px;"/>
                    <circle cx="1293.06" cy="1645.2" r="2.25" style="fill:rgb(69,57,90);stroke:rgb(58,57,90);stroke-width:1.46px;"/>
                    <circle cx="1307.79" cy="1640.68" r="3.115" style="fill:rgb(69,57,90);stroke:rgb(58,57,90);stroke-width:1.46px;"/>
                    <circle cx="1311.29" cy="1654.84" r="5.059" style="fill:rgb(69,57,90);stroke:rgb(58,57,90);stroke-width:1.46px;"/>
                    <circle cx="1320.67" cy="1636.69" r="2.787" style="fill:rgb(69,57,90);stroke:rgb(58,57,90);stroke-width:1.46px;"/>
                    <circle cx="1334.42" cy="1632.59" r="3.264" style="fill:rgb(69,57,90);stroke:rgb(58,57,90);stroke-width:1.46px;"/>
                    <circle cx="1346.31" cy="1628.88" r="3.093" style="fill:rgb(69,57,90);stroke:rgb(58,57,90);stroke-width:1.46px;"/>
                    <circle cx="1361.67" cy="1624.7" r="1.981" style="fill:rgb(69,57,90);stroke:rgb(58,57,90);stroke-width:1.46px;"/>
                    <path d="M1274.62,1717.28C1274.62,1717.28 1306.66,1700.76 1329.62,1677.8C1350.17,1657.25 1369.79,1613.37 1369.79,1613.37C1369.79,1613.37 1396.07,1657.48 1413.33,1673.22C1435.57,1693.52 1473.49,1709.25 1473.49,1709.25C1473.49,1709.25 1428.14,1732.98 1416.82,1747.87C1405.5,1762.76 1376.45,1815.28 1376.45,1815.28C1376.45,1815.28 1352,1769.22 1340.17,1755.78C1322.64,1735.87 1274.62,1717.28 1274.62,1717.28Z" style="fill:rgb(69,57,90);stroke:rgb(29,75,101);stroke-width:1.46px;"/>
                    <g transform="matrix(0.835055,0,0,0.835055,226.123,283.124)">
                        <path d="M1274.62,1717.28C1274.62,1717.28 1306.66,1700.76 1329.62,1677.8C1350.17,1657.25 1369.79,1613.37 1369.79,1613.37C1369.79,1613.37 1396.07,1657.48 1413.33,1673.22C1435.57,1693.52 1473.49,1709.25 1473.49,1709.25C1473.49,1709.25 1428.14,1732.98 1416.82,1747.87C1405.5,1762.76 1376.45,1815.28 1376.45,1815.28C1376.45,1815.28 1352,1769.22 1340.17,1755.78C1322.64,1735.87 1274.62,1717.28 1274.62,1717.28Z" style="fill:url(#_Radial1);stroke:rgb(58,57,90);stroke-width:1.75px;"/>
                    </g>
                </g>
            </g>
        </g>
    </g>
    <defs>
        <radialGradient id="_Radial1" cx="0" cy="0" r="1" gradientUnits="userSpaceOnUse" gradientTransform="matrix(99.435,0,0,100.957,1374.06,1714.32)"><stop offset="0" style="stop-color:rgb(34,139,196);stop-opacity:1"/><stop offset="0.65" style="stop-color:rgb(37,126,196);stop-opacity:1"/><stop offset="1" style="stop-color:rgb(56,45,195);stop-opacity:1"/></radialGradient>
    </defs>
</svg>
