<?xml version="1.0" encoding="UTF-8" standalone="no"?>
<!DOCTYPE svg PUBLIC "-//W3C//DTD SVG 1.1//EN" "http://www.w3.org/Graphics/SVG/1.1/DTD/svg11.dtd">
<svg width="100%" height="100%" viewBox="0 0 299 296" version="1.1" xmlns="http://www.w3.org/2000/svg" xmlns:xlink="http://www.w3.org/1999/xlink" xml:space="preserve" xmlns:serif="http://www.serif.com/" style="fill-rule:evenodd;clip-rule:evenodd;stroke-linecap:round;stroke-linejoin:round;stroke-miterlimit:1.5;">
    <g transform="matrix(1,0,0,1,-882.751,-570.864)">
        <g transform="matrix(0.923558,0,0,1,-128.012,-95.8224)">
            <rect id="Artboard7" x="1094.42" y="666.686" width="323.173" height="295.717" style="fill:none;"/>
            <g id="Artboard71" serif:id="Artboard7">
                <g id="stunned" transform="matrix(0.683646,0,0,0.628633,399.587,356.974)">
                    <g transform="matrix(-0.971414,-0.26029,0.26029,-0.971414,2295.44,1752.7)">
                        <path d="M1264.93,487.995C1248.99,511.962 1228.31,530.717 1202.91,544.263C1174.75,550.213 1146.86,549.134 1119.24,541.023C1122.43,569.632 1118.65,597.288 1107.9,623.991C1090.15,646.653 1068.09,663.755 1041.72,675.296C1062.55,695.16 1077.43,718.776 1086.36,746.142C1087.33,774.912 1081.42,802.193 1068.64,827.985C1097.37,829.81 1123.95,838.335 1148.38,853.56C1167.61,874.976 1180.62,899.671 1187.41,927.645C1210.59,910.578 1236.43,900.024 1264.93,895.983C1293.43,900.024 1319.27,910.578 1342.45,927.645C1349.24,899.671 1362.25,874.976 1381.49,853.56C1405.92,838.335 1432.5,829.81 1461.23,827.985C1448.44,802.193 1442.54,774.912 1443.51,746.142C1452.43,718.776 1467.32,695.16 1488.15,675.296C1461.78,663.755 1439.72,646.653 1421.97,623.991C1411.21,597.288 1407.43,569.632 1410.63,541.023C1383.01,549.134 1355.11,550.213 1326.95,544.263C1301.55,530.717 1280.88,511.962 1264.93,487.995Z" style="fill:rgb(168,213,39);stroke:black;stroke-width:2.3px;"/>
                    </g>
                    <g transform="matrix(0.978317,0,0,0.978317,27.1504,17.1611)">
                        <path d="M1073.85,834.172C1075.01,833.641 1076.25,833.251 1077.56,833.026C1084.68,831.803 1091.49,835.879 1093.96,842.394C1094.12,835.429 1099.18,829.313 1106.31,828.09C1113.43,826.868 1120.25,830.944 1122.71,837.461C1122.87,830.494 1127.93,824.378 1135.06,823.155C1142.18,821.932 1149,826.009 1151.46,832.525C1151.62,825.559 1156.68,819.442 1163.81,818.22C1170.93,816.997 1177.75,821.073 1180.21,827.589C1180.37,820.623 1185.43,814.507 1192.56,813.284C1199.68,812.062 1206.49,816.137 1208.96,822.651C1209.12,815.686 1214.18,809.571 1221.3,808.349C1228.42,807.126 1235.24,811.201 1237.71,817.716C1237.87,810.751 1242.93,804.636 1250.05,803.414C1257.17,802.191 1263.99,806.266 1266.46,812.781C1266.61,805.816 1271.68,799.701 1278.8,798.478C1285.92,797.256 1292.74,801.332 1295.21,807.849C1295.36,800.882 1300.43,794.766 1307.55,793.543C1314.67,792.32 1321.49,796.397 1323.96,802.913C1324.11,795.947 1329.18,789.83 1336.3,788.607C1343.42,787.385 1350.24,791.46 1352.71,797.975C1352.86,791.01 1357.93,784.895 1365.05,783.672C1372.17,782.45 1378.99,786.525 1381.46,793.04C1381.61,786.074 1386.68,779.959 1393.8,778.737C1400.92,777.514 1407.74,781.59 1410.21,788.105C1410.36,781.139 1415.43,775.024 1422.55,773.802C1429.67,772.579 1436.49,776.655 1438.96,783.171C1438.99,781.827 1439.2,780.514 1439.57,779.263C1440.96,784.621 1442.61,789.899 1444.51,795.095C1442.49,793.469 1440.88,791.31 1439.92,788.784C1439.77,795.75 1434.7,801.866 1427.58,803.089C1420.45,804.311 1413.64,800.236 1411.17,793.721C1411.02,800.686 1405.95,806.802 1398.83,808.024C1391.71,809.246 1384.89,805.171 1382.42,798.657C1382.27,805.622 1377.2,811.737 1370.08,812.959C1362.96,814.182 1356.14,810.107 1353.67,803.592C1353.52,810.557 1348.45,816.672 1341.33,817.895C1334.21,819.117 1327.39,815.041 1324.92,808.524C1324.77,815.491 1319.7,821.607 1312.58,822.83C1305.46,824.053 1298.64,819.976 1296.17,813.459C1296.02,820.426 1290.95,826.543 1283.83,827.765C1276.71,828.988 1269.89,824.913 1267.42,818.398C1267.27,825.363 1262.2,831.478 1255.08,832.701C1247.96,833.923 1241.14,829.848 1238.67,823.334C1238.52,830.299 1233.45,836.414 1226.33,837.636C1219.21,838.858 1212.39,834.783 1209.93,828.269C1209.77,835.234 1204.7,841.349 1197.58,842.571C1190.46,843.794 1183.64,839.718 1181.18,833.202C1181.02,840.168 1175.95,846.284 1168.83,847.507C1161.71,848.729 1154.89,844.653 1152.43,838.137C1152.27,845.103 1147.2,851.219 1140.08,852.442C1132.96,853.665 1126.14,849.588 1123.68,843.072C1123.52,850.038 1118.45,856.155 1111.33,857.378C1104.21,858.6 1097.39,854.524 1094.93,848.009C1094.81,853.364 1091.79,858.216 1087.16,860.729C1082.05,860.235 1076.89,859.968 1071.68,859.927C1070.06,858.816 1068.65,857.385 1067.57,855.707C1070.15,848.59 1072.25,841.412 1073.85,834.172ZM1438.15,773.316C1437.98,773.35 1437.81,773.382 1437.64,773.411C1431.43,774.477 1425.43,771.93 1421.79,767.294C1419.91,772.878 1415.1,777.281 1408.89,778.347C1402.68,779.413 1396.68,776.865 1393.04,772.229C1391.16,777.813 1386.35,782.216 1380.14,783.282C1373.93,784.348 1367.93,781.801 1364.3,777.165C1362.41,782.748 1357.6,787.151 1351.39,788.217C1345.18,789.283 1339.18,786.735 1335.55,782.099C1333.66,787.683 1328.85,792.087 1322.64,793.153C1316.43,794.219 1310.43,791.671 1306.8,787.034C1304.91,792.618 1300.1,797.022 1293.89,798.088C1287.68,799.154 1281.68,796.607 1278.05,791.971C1276.16,797.554 1271.36,801.957 1265.14,803.023C1258.94,804.089 1252.93,801.542 1249.3,796.906C1247.41,802.49 1242.61,806.893 1236.4,807.959C1230.19,809.025 1224.18,806.477 1220.55,801.841C1218.67,807.425 1213.86,811.828 1207.65,812.894C1201.44,813.96 1195.44,811.412 1191.8,806.776C1189.92,812.36 1185.11,816.763 1178.9,817.829C1172.69,818.895 1166.69,816.348 1163.05,811.711C1161.17,817.295 1156.36,821.699 1150.15,822.765C1143.94,823.831 1137.94,821.283 1134.3,816.646C1132.42,822.231 1127.61,826.634 1121.4,827.7C1115.19,828.766 1109.19,826.219 1105.55,821.582C1103.67,827.166 1098.86,831.57 1092.65,832.636C1086.44,833.702 1080.44,831.154 1076.8,826.517C1076.27,828.092 1075.51,829.572 1074.54,830.911C1076.26,822.381 1077.31,813.766 1077.69,805.066C1080.08,802.478 1083.31,800.628 1087.04,799.986C1093.25,798.92 1099.26,801.468 1102.89,806.104C1104.78,800.52 1109.58,796.117 1115.79,795.051C1122,793.985 1128.01,796.532 1131.64,801.169C1133.52,795.585 1138.33,791.181 1144.54,790.115C1150.75,789.049 1156.76,791.597 1160.39,796.233C1162.27,790.649 1167.08,786.246 1173.29,785.18C1179.5,784.114 1185.51,786.661 1189.14,791.298C1191.02,785.714 1195.83,781.31 1202.04,780.244C1208.25,779.178 1214.25,781.726 1217.89,786.362C1219.77,780.778 1224.58,776.375 1230.79,775.309C1237,774.243 1243,776.79 1246.64,781.426C1248.52,775.843 1253.33,771.44 1259.54,770.374C1265.75,769.308 1271.75,771.855 1275.39,776.491C1277.27,770.908 1282.08,766.505 1288.29,765.439C1294.5,764.372 1300.5,766.92 1304.14,771.557C1306.02,765.973 1310.83,761.569 1317.04,760.503C1323.25,759.437 1329.25,761.985 1332.89,766.621C1334.77,761.037 1339.58,756.634 1345.79,755.568C1352,754.502 1358,757.049 1361.64,761.685C1363.52,756.101 1368.33,751.698 1374.54,750.632C1380.75,749.566 1386.75,752.114 1390.39,756.75C1392.27,751.166 1397.08,746.763 1403.29,745.697C1409.5,744.631 1415.5,747.178 1419.13,751.815C1421.02,746.231 1425.83,741.828 1432.04,740.762C1433.2,740.563 1434.35,740.49 1435.48,740.533C1435.08,742.053 1434.71,743.582 1434.35,745.122C1434.37,745.536 1434.4,745.95 1434.42,746.364C1433.96,746.383 1433.49,746.431 1433.02,746.512C1427.19,747.514 1423.26,753.066 1424.26,758.902C1425.27,764.738 1430.82,768.663 1436.65,767.662C1436.77,767.642 1436.88,767.621 1437,767.597C1437.35,769.513 1437.73,771.42 1438.15,773.316ZM1436.94,735.255C1434.77,733.564 1433.2,731.092 1432.7,728.172C1431.63,721.946 1435.82,716.023 1442.04,714.954C1442.82,714.821 1443.6,714.769 1444.36,714.794C1443.45,716.868 1442.59,718.964 1441.76,721.08C1439.43,722.081 1438,724.579 1438.45,727.185C1438.55,727.752 1438.73,728.284 1438.97,728.772C1438.25,730.913 1437.58,733.074 1436.94,735.255ZM1448.89,705.239C1445.62,703.7 1443.13,700.642 1442.47,696.814C1441.41,690.588 1445.59,684.665 1451.82,683.596C1455.06,683.039 1458.22,683.908 1460.66,685.748C1459.54,687.35 1458.45,688.967 1457.39,690.6C1456.16,689.563 1454.51,689.054 1452.81,689.346C1449.75,689.87 1447.7,692.774 1448.23,695.826C1448.57,697.815 1449.92,699.379 1451.66,700.084C1450.71,701.786 1449.79,703.505 1448.89,705.239ZM1469.23,668.963C1468.05,670.488 1466.31,671.592 1464.26,671.944C1459.89,672.695 1455.73,669.755 1454.98,665.385C1454.84,664.602 1454.83,663.827 1454.92,663.076C1459.56,665.232 1464.34,667.195 1469.23,668.963ZM1421.5,642.544C1421.5,645.568 1419.33,648.246 1416.25,648.775C1412.8,649.366 1409.53,647.051 1408.94,643.609C1408.35,640.184 1410.64,636.925 1414.05,636.31C1416.49,638.466 1418.97,640.544 1421.5,642.544ZM1040.15,700.501C1040.22,700.486 1040.29,700.473 1040.36,700.46C1043.8,699.869 1047.08,702.184 1047.67,705.627C1048.26,709.069 1045.94,712.344 1042.5,712.935C1039.06,713.526 1035.79,711.211 1035.19,707.768C1034.9,706.057 1035.33,704.386 1036.25,703.067C1037.56,702.227 1038.86,701.372 1040.15,700.501ZM1068.62,760.161C1068.03,754.24 1072.12,748.778 1078.08,747.755C1084.3,746.687 1090.23,750.874 1091.3,757.1C1092.36,763.326 1088.18,769.249 1081.95,770.318C1078.46,770.917 1075.06,769.862 1072.56,767.72C1071.3,765.158 1069.99,762.638 1068.62,760.161ZM1077.06,781.207C1079.34,782.9 1081,785.44 1081.52,788.458C1082.21,792.497 1080.69,796.408 1077.84,798.95C1077.88,793.074 1077.62,787.159 1077.06,781.207ZM1091.46,861.201C1093.14,860.091 1095.06,859.303 1097.16,858.942C1102.97,857.945 1108.58,860.471 1111.79,864.97C1105.11,863.299 1098.33,862.043 1091.46,861.201ZM1113.9,865.514C1115.15,859.765 1119.77,855.062 1125.91,854.006C1133.04,852.784 1139.85,856.86 1142.32,863.376C1142.47,856.41 1147.54,850.293 1154.66,849.071C1161.79,847.848 1168.6,851.924 1171.07,858.441C1171.22,851.474 1176.29,845.358 1183.41,844.135C1190.54,842.913 1197.35,846.989 1199.82,853.505C1199.97,846.539 1205.04,840.422 1212.16,839.2C1219.29,837.977 1226.1,842.052 1228.57,848.567C1228.72,841.602 1233.79,835.487 1240.91,834.265C1248.03,833.042 1254.85,837.117 1257.32,843.631C1257.47,836.666 1262.54,830.552 1269.66,829.329C1276.78,828.107 1283.6,832.182 1286.07,838.697C1286.22,831.732 1291.29,825.617 1298.41,824.394C1305.53,823.171 1312.35,827.248 1314.82,833.765C1314.97,826.798 1320.04,820.681 1327.16,819.459C1334.28,818.236 1341.1,822.313 1343.57,828.829C1343.72,821.863 1348.79,815.746 1355.91,814.523C1363.03,813.301 1369.85,817.376 1372.32,823.891C1372.47,816.925 1377.54,810.81 1384.66,809.588C1391.78,808.365 1398.6,812.44 1401.07,818.955C1401.22,811.99 1406.29,805.875 1413.41,804.653C1420.53,803.43 1427.35,807.505 1429.81,814.021C1429.97,807.055 1435.04,800.94 1442.16,799.717C1443.54,799.48 1444.91,799.442 1446.24,799.583C1447.17,801.928 1448.17,804.256 1449.22,806.568C1447.45,805.534 1445.32,805.094 1443.14,805.467C1438.24,806.31 1434.93,810.98 1435.78,815.888C1436.62,820.796 1441.29,824.097 1446.2,823.255C1450.18,822.572 1453.1,819.372 1453.61,815.57C1454.79,817.799 1456.01,820.013 1457.28,822.21C1456.2,823.94 1454.78,825.446 1453.08,826.615C1449.4,827.304 1445.78,828.104 1442.2,829.014C1437.06,828.145 1432.66,824.598 1430.78,819.637C1430.62,826.602 1425.56,832.717 1418.44,833.94C1411.31,835.162 1404.5,831.087 1402.03,824.572C1401.88,831.538 1396.81,837.653 1389.69,838.875C1382.57,840.098 1375.75,836.022 1373.28,829.508C1373.13,836.473 1368.06,842.588 1360.94,843.81C1353.82,845.033 1347,840.956 1344.53,834.44C1344.38,841.406 1339.31,847.523 1332.19,848.746C1325.07,849.968 1318.25,845.892 1315.78,839.375C1315.63,846.342 1310.56,852.459 1303.44,853.681C1296.32,854.904 1289.5,850.829 1287.03,844.314C1286.88,851.279 1281.81,857.394 1274.69,858.617C1267.57,859.839 1260.75,855.764 1258.28,849.25C1258.13,856.215 1253.06,862.329 1245.94,863.552C1238.82,864.774 1232,860.699 1229.53,854.184C1229.38,861.15 1224.31,867.265 1217.19,868.487C1210.07,869.71 1203.25,865.633 1200.78,859.117C1200.63,866.084 1195.56,872.2 1188.44,873.422C1181.32,874.645 1174.5,870.569 1172.03,864.053C1171.88,871.019 1166.81,877.135 1159.69,878.358C1152.57,879.58 1145.75,875.504 1143.28,868.988C1143.23,871.294 1142.64,873.507 1141.62,875.48C1139.84,874.663 1138.05,873.879 1136.26,873.127C1137.27,871.371 1137.69,869.27 1137.32,867.123C1136.48,862.215 1131.81,858.914 1126.9,859.756C1123.04,860.419 1120.17,863.453 1119.54,867.108C1117.66,866.543 1115.79,866.012 1113.9,865.514ZM1455.99,826.094C1456.9,825.617 1457.87,825.221 1458.89,824.917C1459.02,825.133 1459.15,825.348 1459.28,825.563C1458.18,825.73 1457.08,825.907 1455.99,826.094ZM1349.37,933.63C1348.14,932.923 1347,932.076 1345.97,931.107C1345.58,931.849 1345.15,932.565 1344.67,933.247C1342.96,932.27 1341.24,931.324 1339.51,930.41C1340.65,928.956 1341.47,927.254 1341.87,925.423C1341.23,924.011 1340.75,922.493 1340.47,920.891C1340.2,919.288 1340.14,917.698 1340.28,916.151C1337.68,911.997 1332.75,909.599 1327.63,910.479C1322.5,911.359 1318.65,915.265 1317.59,920.047C1317.7,920.303 1317.82,920.562 1317.92,920.825C1314.77,919.682 1311.6,918.635 1308.39,917.685C1305.92,915.853 1302.78,914.934 1299.52,915.321C1289.49,912.937 1279.18,911.46 1268.58,910.892C1266.32,911.417 1264.08,911.982 1261.86,912.587C1263.56,910.313 1264.35,907.378 1263.83,904.367C1262.83,898.531 1257.28,894.606 1251.44,895.608C1245.61,896.609 1241.68,902.162 1242.68,907.998C1243.37,912.01 1246.21,915.119 1249.82,916.345C1247.44,917.181 1245.1,918.066 1242.77,919.001C1241.83,918.23 1240.97,917.355 1240.21,916.39C1239.79,917.648 1239.22,918.846 1238.51,919.959C1239.12,919.787 1239.75,919.645 1240.39,919.535C1240.91,919.446 1241.43,919.379 1241.95,919.335C1234.02,922.579 1226.38,926.404 1219.05,930.812C1217.06,930.076 1214.86,929.837 1212.63,930.22C1207.51,931.1 1203.65,935.006 1202.59,939.788C1202.85,940.352 1203.08,940.934 1203.28,941.531C1201.14,943.169 1199.02,944.864 1196.94,946.615C1196.86,946.27 1196.79,945.921 1196.73,945.567C1196.45,943.965 1196.39,942.375 1196.54,940.828C1194.69,937.869 1191.65,935.802 1188.21,935.174C1187.32,933.142 1186.4,931.134 1185.44,929.148C1185.5,929.147 1185.56,929.145 1185.62,929.144C1185.52,929.069 1185.42,928.993 1185.33,928.916C1176.19,910.039 1163.78,893.269 1148.09,878.607C1148.03,878.576 1147.97,878.545 1147.91,878.514C1152.89,878.663 1157.46,881.061 1160.45,884.866C1162.33,879.282 1167.14,874.879 1173.35,873.813C1179.56,872.747 1185.56,875.294 1189.2,879.931C1191.08,874.347 1195.89,869.943 1202.1,868.877C1208.31,867.811 1214.31,870.359 1217.95,874.995C1219.83,869.411 1224.64,865.008 1230.85,863.942C1237.06,862.876 1243.06,865.423 1246.7,870.059C1248.58,864.476 1253.39,860.073 1259.6,859.007C1265.81,857.941 1271.81,860.488 1275.44,865.124C1277.33,859.541 1282.14,855.137 1288.35,854.071C1294.56,853.005 1300.56,855.553 1304.19,860.19C1306.08,854.606 1310.89,850.202 1317.1,849.136C1323.31,848.07 1329.31,850.618 1332.94,855.254C1334.83,849.67 1339.64,845.267 1345.85,844.2C1352.06,843.135 1358.06,845.682 1361.69,850.318C1363.58,844.734 1368.38,840.331 1374.6,839.265C1380.8,838.199 1386.81,840.747 1390.44,845.383C1392.33,839.799 1397.13,835.396 1403.34,834.33C1408.22,833.493 1412.97,834.885 1416.55,837.768C1414.4,838.701 1412.27,839.68 1410.16,840.704C1408.37,839.981 1406.37,839.73 1404.33,840.08C1399.79,840.859 1396.41,844.393 1395.6,848.672C1393.02,850.253 1390.47,851.908 1387.95,853.638C1386.88,847.877 1381.37,844.021 1375.58,845.015C1369.75,846.017 1365.82,851.569 1366.82,857.405C1367.63,862.124 1371.42,865.594 1375.92,866.22C1373.81,869.378 1371.81,872.585 1369.93,875.841C1368.8,875.662 1367.63,875.663 1366.44,875.866C1360.61,876.868 1356.68,882.421 1357.68,888.256C1358.08,890.582 1359.2,892.604 1360.78,894.132C1359.18,897.877 1357.72,901.679 1356.4,905.539C1356.39,905.541 1356.38,905.542 1356.38,905.543C1351.25,906.423 1347.4,910.329 1346.34,915.112C1346.99,916.524 1347.46,918.041 1347.74,919.644C1348.01,921.247 1348.07,922.836 1347.93,924.383C1348.63,925.51 1349.51,926.508 1350.52,927.346C1350.1,929.426 1349.71,931.521 1349.37,933.63ZM1421.79,835.596C1424.24,832.424 1427.84,830.125 1432.09,829.395C1434.59,828.966 1437.06,829.122 1439.35,829.764C1433.36,831.395 1427.51,833.339 1421.79,835.596ZM1071.25,708C1067.81,708.59 1064.54,706.275 1063.94,702.833C1063.35,699.391 1065.67,696.116 1069.11,695.525C1072.55,694.934 1075.83,697.249 1076.42,700.691C1077.01,704.134 1074.69,707.409 1071.25,708ZM1070.1,701.275C1069.83,701.321 1069.65,701.577 1069.69,701.846C1069.74,702.115 1070,702.296 1070.27,702.25C1070.53,702.204 1070.71,701.947 1070.67,701.679C1070.62,701.41 1070.37,701.228 1070.1,701.275ZM1100,703.064C1096.56,703.655 1093.28,701.34 1092.69,697.898C1092.1,694.455 1094.42,691.18 1097.86,690.589C1101.3,689.998 1104.58,692.314 1105.17,695.756C1105.76,699.198 1103.44,702.473 1100,703.064ZM1098.85,696.339C1098.58,696.385 1098.4,696.641 1098.44,696.91C1098.49,697.179 1098.75,697.36 1099.02,697.314C1099.28,697.268 1099.46,697.012 1099.42,696.743C1099.37,696.474 1099.12,696.293 1098.85,696.339ZM1128.75,698.129C1125.31,698.72 1122.03,696.404 1121.44,692.962C1120.85,689.52 1123.17,686.245 1126.61,685.654C1130.05,685.063 1133.33,687.378 1133.92,690.82C1134.51,694.263 1132.19,697.538 1128.75,698.129ZM1127.6,691.404C1127.33,691.45 1127.15,691.706 1127.19,691.975C1127.24,692.244 1127.5,692.425 1127.77,692.379C1128.03,692.333 1128.21,692.077 1128.17,691.808C1128.12,691.539 1127.87,691.358 1127.6,691.404ZM1061.77,741.039C1057.39,741.789 1053.24,738.85 1052.49,734.48C1051.74,730.11 1054.68,725.952 1059.05,725.202C1063.42,724.452 1067.58,727.391 1068.33,731.761C1069.08,736.131 1066.13,740.289 1061.77,741.039ZM1060.03,730.952C1058.84,731.157 1058.03,732.296 1058.24,733.493C1058.44,734.69 1059.58,735.495 1060.78,735.289C1061.97,735.084 1062.78,733.945 1062.57,732.748C1062.37,731.552 1061.23,730.747 1060.03,730.952ZM1090.52,736.104C1086.14,736.854 1081.99,733.915 1081.24,729.545C1080.49,725.175 1083.43,721.017 1087.8,720.267C1092.17,719.516 1096.32,722.456 1097.07,726.826C1097.83,731.196 1094.88,735.354 1090.52,736.104ZM1088.78,726.017C1087.59,726.222 1086.78,727.361 1086.99,728.558C1087.19,729.754 1088.33,730.56 1089.53,730.354C1090.72,730.149 1091.53,729.01 1091.32,727.813C1091.12,726.616 1089.98,725.811 1088.78,726.017ZM1119.27,731.168C1114.89,731.919 1110.74,728.979 1109.99,724.609C1109.24,720.239 1112.18,716.081 1116.55,715.331C1120.92,714.581 1125.07,717.52 1125.82,721.89C1126.58,726.261 1123.63,730.418 1119.27,731.168ZM1117.53,721.081C1116.34,721.287 1115.53,722.425 1115.74,723.622C1115.94,724.819 1117.08,725.624 1118.28,725.419C1119.47,725.213 1120.28,724.074 1120.07,722.878C1119.87,721.681 1118.73,720.876 1117.53,721.081ZM1148.02,726.233C1143.64,726.983 1139.49,724.044 1138.74,719.674C1137.99,715.304 1140.93,711.146 1145.3,710.396C1149.67,709.646 1153.82,712.585 1154.57,716.955C1155.32,721.325 1152.38,725.483 1148.02,726.233ZM1146.28,716.146C1145.09,716.351 1144.28,717.49 1144.49,718.687C1144.69,719.883 1145.83,720.689 1147.03,720.483C1148.22,720.278 1149.03,719.139 1148.82,717.942C1148.62,716.745 1147.48,715.94 1146.28,716.146ZM1176.76,721.298C1172.39,722.048 1168.24,719.109 1167.49,714.738C1166.74,710.368 1169.67,706.211 1174.05,705.46C1178.42,704.71 1182.57,707.649 1183.32,712.02C1184.07,716.39 1181.13,720.547 1176.76,721.298ZM1175.03,711.21C1173.84,711.416 1173.03,712.554 1173.24,713.751C1173.44,714.948 1174.58,715.753 1175.78,715.548C1176.97,715.342 1177.78,714.203 1177.57,713.007C1177.37,711.81 1176.23,711.005 1175.03,711.21ZM1205.51,716.362C1201.14,717.113 1196.99,714.173 1196.24,709.803C1195.49,705.433 1198.42,701.275 1202.79,700.525C1207.16,699.775 1211.32,702.714 1212.07,707.084C1212.82,711.454 1209.88,715.612 1205.51,716.362ZM1203.78,706.275C1202.59,706.48 1201.78,707.619 1201.99,708.816C1202.19,710.013 1203.33,710.818 1204.53,710.612C1205.72,710.407 1206.53,709.268 1206.32,708.071C1206.12,706.875 1204.98,706.07 1203.78,706.275ZM1234.26,711.427C1229.89,712.177 1225.73,709.238 1224.98,704.868C1224.23,700.498 1227.17,696.34 1231.54,695.59C1235.91,694.84 1240.07,697.779 1240.82,702.149C1241.57,706.519 1238.63,710.677 1234.26,711.427ZM1232.53,701.34C1231.33,701.545 1230.53,702.684 1230.73,703.881C1230.94,705.077 1232.08,705.883 1233.28,705.677C1234.47,705.472 1235.28,704.333 1235.07,703.136C1234.87,701.94 1233.73,701.134 1232.53,701.34ZM1263.01,706.492C1258.64,707.242 1254.48,704.303 1253.73,699.933C1252.98,695.562 1255.92,691.405 1260.29,690.655C1264.66,689.904 1268.82,692.844 1269.57,697.214C1270.32,701.584 1267.38,705.742 1263.01,706.492ZM1261.28,696.404C1260.08,696.61 1259.28,697.749 1259.48,698.945C1259.69,700.142 1260.83,700.947 1262.02,700.742C1263.22,700.537 1264.03,699.398 1263.82,698.201C1263.61,697.004 1262.48,696.199 1261.28,696.404ZM1291.76,701.556C1287.39,702.307 1283.23,699.367 1282.48,694.997C1281.73,690.627 1284.67,686.469 1289.04,685.719C1293.41,684.969 1297.57,687.908 1298.32,692.278C1299.07,696.648 1296.13,700.806 1291.76,701.556ZM1290.03,691.469C1288.83,691.674 1288.03,692.813 1288.23,694.01C1288.44,695.207 1289.58,696.012 1290.77,695.807C1291.97,695.601 1292.78,694.462 1292.57,693.266C1292.36,692.069 1291.23,691.264 1290.03,691.469ZM1320.51,696.621C1316.14,697.371 1311.98,694.432 1311.23,690.062C1310.48,685.692 1313.42,681.534 1317.79,680.784C1322.16,680.033 1326.32,682.973 1327.07,687.343C1327.82,691.713 1324.88,695.871 1320.51,696.621ZM1318.78,686.534C1317.58,686.739 1316.78,687.878 1316.98,689.075C1317.19,690.271 1318.33,691.077 1319.52,690.871C1320.72,690.666 1321.53,689.527 1321.32,688.33C1321.12,687.133 1319.98,686.328 1318.78,686.534ZM1349.26,691.686C1344.89,692.436 1340.73,689.497 1339.98,685.126C1339.23,680.756 1342.17,676.599 1346.54,675.848C1350.91,675.098 1355.07,678.037 1355.82,682.408C1356.57,686.778 1353.63,690.935 1349.26,691.686ZM1347.53,681.598C1346.33,681.804 1345.53,682.943 1345.73,684.139C1345.94,685.336 1347.08,686.141 1348.27,685.936C1349.47,685.73 1350.27,684.592 1350.07,683.395C1349.86,682.198 1348.73,681.393 1347.53,681.598ZM1378.01,686.75C1373.64,687.501 1369.48,684.561 1368.73,680.191C1367.98,675.821 1370.92,671.663 1375.29,670.913C1379.66,670.163 1383.82,673.102 1384.57,677.472C1385.32,681.843 1382.38,686 1378.01,686.75ZM1376.28,676.663C1375.08,676.868 1374.28,678.007 1374.48,679.204C1374.69,680.401 1375.83,681.206 1377.02,681.001C1378.22,680.795 1379.02,679.656 1378.82,678.46C1378.61,677.263 1377.47,676.458 1376.28,676.663ZM1406.76,681.815C1402.39,682.565 1398.23,679.626 1397.48,675.256C1396.73,670.886 1399.67,666.728 1404.04,665.978C1408.41,665.228 1412.57,668.167 1413.32,672.537C1414.07,676.907 1411.13,681.065 1406.76,681.815ZM1405.03,671.728C1403.83,671.933 1403.02,673.072 1403.23,674.269C1403.43,675.466 1404.57,676.271 1405.77,676.065C1406.97,675.86 1407.77,674.721 1407.57,673.524C1407.36,672.327 1406.22,671.522 1405.03,671.728ZM1435.51,676.88C1431.14,677.63 1426.98,674.691 1426.23,670.321C1425.48,665.95 1428.42,661.793 1432.79,661.042C1437.16,660.292 1441.32,663.231 1442.07,667.602C1442.82,671.972 1439.88,676.129 1435.51,676.88ZM1433.78,666.792C1432.58,666.998 1431.77,668.137 1431.98,669.333C1432.18,670.53 1433.32,671.335 1434.52,671.13C1435.72,670.924 1436.52,669.786 1436.32,668.589C1436.11,667.392 1434.97,666.587 1433.78,666.792ZM1100.92,796.741C1094.7,797.809 1088.77,793.622 1087.71,787.396C1086.64,781.171 1090.83,775.247 1097.05,774.179C1103.28,773.11 1109.2,777.297 1110.27,783.523C1111.34,789.749 1107.15,795.672 1100.92,796.741ZM1098.04,779.928C1094.99,780.452 1092.93,783.357 1093.46,786.409C1093.98,789.461 1096.88,791.515 1099.94,790.991C1102.99,790.467 1105.04,787.563 1104.52,784.51C1103.99,781.458 1101.09,779.404 1098.04,779.928ZM1129.67,791.805C1123.45,792.874 1117.52,788.687 1116.46,782.461C1115.39,776.235 1119.58,770.312 1125.8,769.243C1132.03,768.174 1137.95,772.362 1139.02,778.588C1140.09,784.813 1135.9,790.737 1129.67,791.805ZM1126.79,774.993C1123.74,775.517 1121.68,778.421 1122.21,781.474C1122.73,784.526 1125.63,786.579 1128.69,786.055C1131.74,785.531 1133.79,782.627 1133.27,779.575C1132.74,776.522 1129.84,774.469 1126.79,774.993ZM1158.42,786.87C1152.2,787.939 1146.27,783.751 1145.21,777.525C1144.14,771.3 1148.33,765.376 1154.55,764.308C1160.78,763.239 1166.7,767.426 1167.77,773.652C1168.84,779.878 1164.65,785.801 1158.42,786.87ZM1155.54,770.058C1152.49,770.582 1150.43,773.486 1150.96,776.538C1151.48,779.591 1154.38,781.644 1157.44,781.12C1160.49,780.596 1162.54,777.692 1162.02,774.639C1161.49,771.587 1158.59,769.534 1155.54,770.058ZM1187.17,781.934C1180.95,783.003 1175.02,778.816 1173.96,772.59C1172.89,766.364 1177.08,760.441 1183.3,759.372C1189.53,758.303 1195.45,762.491 1196.52,768.717C1197.59,774.942 1193.4,780.866 1187.17,781.934ZM1184.29,765.122C1181.24,765.646 1179.18,768.55 1179.71,771.603C1180.23,774.655 1183.13,776.709 1186.19,776.185C1189.24,775.661 1191.29,772.756 1190.77,769.704C1190.24,766.652 1187.34,764.598 1184.29,765.122ZM1215.92,776.999C1209.7,778.068 1203.77,773.881 1202.7,767.655C1201.64,761.429 1205.82,755.506 1212.05,754.437C1218.28,753.368 1224.2,757.556 1225.27,763.781C1226.34,770.007 1222.15,775.93 1215.92,776.999ZM1213.04,760.187C1209.98,760.711 1207.93,763.615 1208.45,766.668C1208.98,769.72 1211.88,771.773 1214.94,771.249C1217.99,770.725 1220.04,767.821 1219.52,764.769C1218.99,761.716 1216.09,759.663 1213.04,760.187ZM1244.67,772.064C1238.44,773.133 1232.52,768.945 1231.45,762.72C1230.38,756.494 1234.57,750.571 1240.8,749.502C1247.02,748.433 1252.95,752.62 1254.02,758.846C1255.09,765.072 1250.9,770.995 1244.67,772.064ZM1241.79,755.252C1238.73,755.776 1236.68,758.68 1237.2,761.732C1237.73,764.785 1240.63,766.838 1243.68,766.314C1246.74,765.79 1248.79,762.886 1248.27,759.833C1247.74,756.781 1244.84,754.728 1241.79,755.252ZM1273.42,767.129C1267.19,768.197 1261.27,764.01 1260.2,757.784C1259.13,751.558 1263.32,745.635 1269.55,744.566C1275.77,743.498 1281.7,747.685 1282.77,753.911C1283.83,760.137 1279.65,766.06 1273.42,767.129ZM1270.53,750.316C1267.48,750.84 1265.43,753.745 1265.95,756.797C1266.48,759.849 1269.38,761.903 1272.43,761.379C1275.49,760.855 1277.54,757.951 1277.01,754.898C1276.49,751.846 1273.59,749.792 1270.53,750.316ZM1302.17,762.193C1295.94,763.262 1290.02,759.075 1288.95,752.849C1287.88,746.623 1292.07,740.7 1298.3,739.631C1304.52,738.562 1310.45,742.75 1311.52,748.975C1312.58,755.201 1308.4,761.124 1302.17,762.193ZM1299.28,745.381C1296.23,745.905 1294.18,748.809 1294.7,751.862C1295.23,754.914 1298.13,756.967 1301.18,756.443C1304.24,755.919 1306.29,753.015 1305.77,749.963C1305.24,746.91 1302.34,744.857 1299.28,745.381ZM1330.92,757.258C1324.69,758.326 1318.77,754.139 1317.7,747.913C1316.63,741.687 1320.82,735.764 1327.05,734.696C1333.27,733.627 1339.2,737.814 1340.27,744.04C1341.33,750.266 1337.15,756.189 1330.92,757.258ZM1328.03,740.445C1324.98,740.969 1322.93,743.874 1323.45,746.926C1323.98,749.979 1326.88,752.032 1329.93,751.508C1332.99,750.984 1335.04,748.08 1334.52,745.027C1333.99,741.975 1331.09,739.921 1328.03,740.445ZM1359.67,752.322C1353.44,753.391 1347.52,749.204 1346.45,742.978C1345.38,736.752 1349.57,730.829 1355.8,729.76C1362.02,728.691 1367.94,732.879 1369.01,739.105C1370.08,745.331 1365.89,751.254 1359.67,752.322ZM1356.78,735.51C1353.73,736.034 1351.68,738.938 1352.2,741.991C1352.73,745.043 1355.63,747.097 1358.68,746.573C1361.74,746.049 1363.79,743.144 1363.26,740.092C1362.74,737.039 1359.84,734.986 1356.78,735.51ZM1388.42,747.387C1382.19,748.456 1376.27,744.269 1375.2,738.043C1374.13,731.817 1378.32,725.894 1384.55,724.825C1390.77,723.756 1396.69,727.944 1397.76,734.169C1398.83,740.395 1394.64,746.318 1388.42,747.387ZM1385.53,730.575C1382.48,731.099 1380.43,734.003 1380.95,737.056C1381.48,740.108 1384.38,742.161 1387.43,741.637C1390.48,741.113 1392.54,738.209 1392.01,735.157C1391.49,732.104 1388.58,730.051 1385.53,730.575ZM1417.17,742.452C1410.94,743.521 1405.02,739.333 1403.95,733.108C1402.88,726.882 1407.07,720.959 1413.29,719.89C1419.52,718.821 1425.44,723.008 1426.51,729.234C1427.58,735.46 1423.39,741.383 1417.17,742.452ZM1414.28,725.64C1411.23,726.164 1409.17,729.068 1409.7,732.12C1410.22,735.173 1413.13,737.226 1416.18,736.702C1419.23,736.178 1421.29,733.274 1420.76,730.221C1420.24,727.169 1417.33,725.116 1414.28,725.64ZM1157.5,693.193C1154.06,693.784 1150.78,691.469 1150.19,688.027C1149.6,684.584 1151.92,681.309 1155.36,680.718C1158.8,680.128 1162.08,682.443 1162.67,685.885C1163.26,689.327 1160.94,692.602 1157.5,693.193ZM1156.35,686.468C1156.08,686.515 1155.9,686.771 1155.94,687.039C1155.99,687.308 1156.25,687.49 1156.52,687.443C1156.78,687.397 1156.96,687.141 1156.92,686.872C1156.87,686.603 1156.62,686.422 1156.35,686.468ZM1186.25,688.258C1182.81,688.849 1179.53,686.534 1178.94,683.091C1178.35,679.649 1180.67,676.374 1184.11,675.783C1187.55,675.192 1190.83,677.507 1191.42,680.95C1192.01,684.392 1189.69,687.667 1186.25,688.258ZM1185.1,681.533C1184.83,681.579 1184.65,681.835 1184.69,682.104C1184.74,682.373 1185,682.554 1185.27,682.508C1185.53,682.462 1185.71,682.206 1185.67,681.937C1185.62,681.668 1185.37,681.487 1185.1,681.533ZM1215,683.323C1211.56,683.913 1208.28,681.598 1207.69,678.156C1207.1,674.714 1209.42,671.439 1212.86,670.848C1216.3,670.257 1219.58,672.572 1220.17,676.014C1220.76,679.457 1218.44,682.732 1215,683.323ZM1213.85,676.598C1213.58,676.644 1213.4,676.9 1213.44,677.169C1213.49,677.438 1213.75,677.619 1214.01,677.573C1214.28,677.527 1214.46,677.27 1214.42,677.002C1214.37,676.733 1214.12,676.552 1213.85,676.598ZM1243.75,678.387C1240.31,678.978 1237.03,676.663 1236.44,673.221C1235.85,669.778 1238.16,666.504 1241.61,665.913C1245.05,665.322 1248.33,667.637 1248.92,671.079C1249.51,674.521 1247.19,677.796 1243.75,678.387ZM1242.6,671.662C1242.33,671.709 1242.14,671.965 1242.19,672.234C1242.24,672.503 1242.49,672.684 1242.76,672.638C1243.03,672.591 1243.21,672.335 1243.16,672.066C1243.12,671.797 1242.86,671.616 1242.6,671.662ZM1272.5,673.452C1269.06,674.043 1265.78,671.728 1265.19,668.286C1264.6,664.843 1266.91,661.568 1270.36,660.977C1273.8,660.386 1277.07,662.701 1277.66,666.144C1278.26,669.586 1275.94,672.861 1272.5,673.452ZM1271.34,666.727C1271.08,666.773 1270.89,667.029 1270.94,667.298C1270.99,667.567 1271.24,667.748 1271.51,667.702C1271.78,667.656 1271.96,667.4 1271.91,667.131C1271.87,666.862 1271.61,666.681 1271.34,666.727ZM1301.25,668.517C1297.81,669.108 1294.53,666.792 1293.94,663.35C1293.35,659.908 1295.66,656.633 1299.11,656.042C1302.55,655.451 1305.82,657.766 1306.41,661.208C1307.01,664.651 1304.69,667.926 1301.25,668.517ZM1300.09,661.792C1299.83,661.838 1299.64,662.094 1299.69,662.363C1299.74,662.632 1299.99,662.813 1300.26,662.767C1300.53,662.721 1300.71,662.465 1300.66,662.196C1300.62,661.927 1300.36,661.746 1300.09,661.792ZM1330,663.581C1326.56,664.172 1323.28,661.857 1322.69,658.415C1322.1,654.972 1324.41,651.697 1327.86,651.106C1331.3,650.515 1334.57,652.831 1335.16,656.273C1335.76,659.715 1333.44,662.99 1330,663.581ZM1328.84,656.856C1328.58,656.902 1328.39,657.158 1328.44,657.427C1328.49,657.696 1328.74,657.877 1329.01,657.831C1329.28,657.785 1329.46,657.529 1329.41,657.26C1329.37,656.991 1329.11,656.81 1328.84,656.856ZM1358.75,658.646C1355.31,659.237 1352.03,656.922 1351.44,653.479C1350.85,650.037 1353.16,646.762 1356.61,646.171C1360.05,645.58 1363.32,647.895 1363.91,651.338C1364.51,654.78 1362.19,658.055 1358.75,658.646ZM1357.59,651.921C1357.32,651.967 1357.14,652.223 1357.19,652.492C1357.24,652.761 1357.49,652.942 1357.76,652.896C1358.03,652.85 1358.21,652.594 1358.16,652.325C1358.12,652.056 1357.86,651.875 1357.59,651.921ZM1387.5,653.711C1384.05,654.302 1380.78,651.986 1380.19,648.544C1379.6,645.102 1381.91,641.827 1385.35,641.236C1388.8,640.645 1392.07,642.96 1392.66,646.402C1393.25,649.845 1390.94,653.12 1387.5,653.711ZM1386.34,646.986C1386.07,647.032 1385.89,647.288 1385.94,647.557C1385.98,647.826 1386.24,648.007 1386.51,647.961C1386.78,647.915 1386.96,647.659 1386.91,647.39C1386.87,647.121 1386.61,646.94 1386.34,646.986ZM1110.7,765.382C1104.47,766.451 1098.55,762.264 1097.48,756.038C1096.41,749.812 1100.6,743.889 1106.83,742.82C1113.05,741.751 1118.98,745.939 1120.05,752.164C1121.11,758.39 1116.93,764.313 1110.7,765.382ZM1107.81,748.57C1104.76,749.094 1102.71,751.998 1103.23,755.051C1103.76,758.103 1106.66,760.156 1109.71,759.632C1112.77,759.108 1114.82,756.204 1114.29,753.152C1113.77,750.099 1110.87,748.046 1107.81,748.57ZM1139.45,760.447C1133.22,761.515 1127.3,757.328 1126.23,751.102C1125.16,744.877 1129.35,738.953 1135.58,737.885C1141.8,736.816 1147.73,741.003 1148.8,747.229C1149.86,753.455 1145.68,759.378 1139.45,760.447ZM1136.56,743.634C1133.51,744.158 1131.46,747.063 1131.98,750.115C1132.51,753.167 1135.41,755.221 1138.46,754.697C1141.52,754.173 1143.57,751.269 1143.04,748.216C1142.52,745.164 1139.62,743.11 1136.56,743.634ZM1168.2,755.511C1161.97,756.58 1156.05,752.393 1154.98,746.167C1153.91,739.941 1158.1,734.018 1164.33,732.949C1170.55,731.88 1176.48,736.068 1177.55,742.294C1178.61,748.519 1174.43,754.443 1168.2,755.511ZM1165.31,738.699C1162.26,739.223 1160.21,742.127 1160.73,745.18C1161.26,748.232 1164.16,750.285 1167.21,749.761C1170.27,749.237 1172.32,746.333 1171.79,743.281C1171.27,740.228 1168.37,738.175 1165.31,738.699ZM1196.95,750.576C1190.72,751.645 1184.8,747.457 1183.73,741.231C1182.66,735.006 1186.85,729.082 1193.08,728.014C1199.3,726.945 1205.23,731.132 1206.3,737.358C1207.36,743.584 1203.17,749.507 1196.95,750.576ZM1194.06,733.764C1191.01,734.288 1188.96,737.192 1189.48,740.244C1190.01,743.297 1192.91,745.35 1195.96,744.826C1199.02,744.302 1201.07,741.398 1200.54,738.345C1200.02,735.293 1197.12,733.24 1194.06,733.764ZM1225.7,745.641C1219.47,746.709 1213.55,742.522 1212.48,736.296C1211.41,730.07 1215.6,724.147 1221.83,723.078C1228.05,722.01 1233.98,726.197 1235.04,732.423C1236.11,738.649 1231.92,744.572 1225.7,745.641ZM1222.81,728.828C1219.76,729.352 1217.71,732.257 1218.23,735.309C1218.76,738.361 1221.66,740.415 1224.71,739.891C1227.76,739.367 1229.82,736.462 1229.29,733.41C1228.77,730.358 1225.87,728.304 1222.81,728.828ZM1254.45,740.705C1248.22,741.774 1242.3,737.587 1241.23,731.361C1240.16,725.135 1244.35,719.212 1250.57,718.143C1256.8,717.074 1262.72,721.262 1263.79,727.488C1264.86,733.713 1260.67,739.637 1254.45,740.705ZM1251.56,723.893C1248.51,724.417 1246.46,727.321 1246.98,730.374C1247.5,733.426 1250.41,735.48 1253.46,734.956C1256.51,734.432 1258.57,731.527 1258.04,728.475C1257.52,725.422 1254.61,723.369 1251.56,723.893ZM1283.2,735.77C1276.97,736.839 1271.05,732.652 1269.98,726.426C1268.91,720.2 1273.1,714.277 1279.32,713.208C1285.55,712.139 1291.47,716.327 1292.54,722.552C1293.61,728.778 1289.42,734.701 1283.2,735.77ZM1280.31,718.958C1277.26,719.482 1275.2,722.386 1275.73,725.438C1276.25,728.491 1279.16,730.544 1282.21,730.02C1285.26,729.496 1287.31,726.592 1286.79,723.54C1286.27,720.487 1283.36,718.434 1280.31,718.958ZM1311.95,730.835C1305.72,731.903 1299.8,727.716 1298.73,721.49C1297.66,715.264 1301.85,709.341 1308.07,708.272C1314.3,707.204 1320.22,711.391 1321.29,717.617C1322.36,723.843 1318.17,729.766 1311.95,730.835ZM1309.06,714.022C1306.01,714.546 1303.95,717.451 1304.48,720.503C1305,723.555 1307.91,725.609 1310.96,725.085C1314.01,724.561 1316.06,721.657 1315.54,718.604C1315.02,715.552 1312.11,713.498 1309.06,714.022ZM1340.7,725.899C1334.47,726.968 1328.55,722.781 1327.48,716.555C1326.41,710.329 1330.6,704.406 1336.82,703.337C1343.05,702.268 1348.97,706.456 1350.04,712.681C1351.11,718.907 1346.92,724.83 1340.7,725.899ZM1337.81,709.087C1334.76,709.611 1332.7,712.515 1333.23,715.568C1333.75,718.62 1336.66,720.673 1339.71,720.149C1342.76,719.625 1344.82,716.721 1344.29,713.669C1343.77,710.616 1340.86,708.563 1337.81,709.087ZM1369.44,720.964C1363.22,722.033 1357.3,717.845 1356.23,711.62C1355.16,705.394 1359.35,699.471 1365.57,698.402C1371.8,697.333 1377.72,701.52 1378.79,707.746C1379.86,713.972 1375.67,719.895 1369.44,720.964ZM1366.56,704.152C1363.51,704.676 1361.45,707.58 1361.98,710.632C1362.5,713.685 1365.41,715.738 1368.46,715.214C1371.51,714.69 1373.56,711.786 1373.04,708.733C1372.52,705.681 1369.61,703.628 1366.56,704.152ZM1398.19,716.029C1391.97,717.097 1386.05,712.91 1384.98,706.684C1383.91,700.458 1388.1,694.535 1394.32,693.466C1400.55,692.398 1406.47,696.585 1407.54,702.811C1408.61,709.037 1404.42,714.96 1398.19,716.029ZM1395.31,699.216C1392.26,699.74 1390.2,702.645 1390.73,705.697C1391.25,708.75 1394.15,710.803 1397.21,710.279C1400.26,709.755 1402.31,706.851 1401.79,703.798C1401.26,700.746 1398.36,698.692 1395.31,699.216ZM1426.94,711.093C1420.72,712.162 1414.79,707.975 1413.73,701.749C1412.66,695.523 1416.84,689.6 1423.07,688.531C1429.3,687.462 1435.22,691.65 1436.29,697.876C1437.36,704.102 1433.17,710.025 1426.94,711.093ZM1424.06,694.281C1421,694.805 1418.95,697.709 1419.48,700.762C1420,703.814 1422.9,705.868 1425.96,705.344C1429.01,704.82 1431.06,701.915 1430.54,698.863C1430.01,695.81 1427.11,693.757 1424.06,694.281ZM1078.54,838.776C1073.63,839.618 1070.33,844.288 1071.18,849.196C1072.02,854.104 1076.69,857.406 1081.6,856.563C1086.51,855.721 1089.81,851.051 1088.96,846.143C1088.12,841.235 1083.45,837.933 1078.54,838.776ZM1107.29,833.84C1102.38,834.683 1099.08,839.353 1099.93,844.261C1100.77,849.169 1105.44,852.47 1110.35,851.628C1115.25,850.785 1118.56,846.115 1117.71,841.207C1116.87,836.299 1112.2,832.998 1107.29,833.84ZM1136.04,828.905C1131.13,829.747 1127.83,834.417 1128.68,839.325C1129.52,844.233 1134.19,847.535 1139.1,846.692C1144,845.85 1147.31,841.18 1146.46,836.272C1145.62,831.364 1140.95,828.062 1136.04,828.905ZM1164.79,823.969C1159.88,824.812 1156.58,829.482 1157.43,834.39C1158.27,839.298 1162.94,842.599 1167.85,841.757C1172.75,840.914 1176.06,836.244 1175.21,831.336C1174.37,826.428 1169.7,823.127 1164.79,823.969ZM1193.54,819.034C1188.63,819.877 1185.33,824.546 1186.18,829.454C1187.02,834.362 1191.69,837.664 1196.6,836.821C1201.5,835.979 1204.81,831.309 1203.96,826.401C1203.12,821.493 1198.45,818.191 1193.54,819.034ZM1222.29,814.099C1217.38,814.941 1214.08,819.611 1214.92,824.519C1215.77,829.427 1220.44,832.729 1225.35,831.886C1230.25,831.044 1233.55,826.374 1232.71,821.466C1231.87,816.558 1227.2,813.256 1222.29,814.099ZM1251.04,809.163C1246.13,810.006 1242.83,814.676 1243.67,819.584C1244.52,824.492 1249.19,827.793 1254.09,826.951C1259,826.108 1262.3,821.439 1261.46,816.531C1260.62,811.622 1255.95,808.321 1251.04,809.163ZM1279.79,804.228C1274.88,805.071 1271.58,809.741 1272.42,814.649C1273.27,819.557 1277.93,822.858 1282.84,822.016C1287.75,821.173 1291.05,816.503 1290.21,811.595C1289.37,806.687 1284.7,803.386 1279.79,804.228ZM1308.54,799.293C1303.63,800.135 1300.33,804.805 1301.17,809.713C1302.02,814.621 1306.68,817.923 1311.59,817.08C1316.5,816.238 1319.8,811.568 1318.96,806.66C1318.12,801.752 1313.45,798.45 1308.54,799.293ZM1337.29,794.357C1332.38,795.2 1329.08,799.87 1329.92,804.778C1330.77,809.686 1335.43,812.987 1340.34,812.145C1345.25,811.302 1348.55,806.632 1347.71,801.724C1346.87,796.816 1342.2,793.515 1337.29,794.357ZM1366.04,789.422C1361.13,790.265 1357.83,794.934 1358.67,799.842C1359.51,804.751 1364.18,808.052 1369.09,807.209C1374,806.367 1377.3,801.697 1376.46,796.789C1375.62,791.881 1370.95,788.579 1366.04,789.422ZM1394.79,784.487C1389.88,785.329 1386.58,789.999 1387.42,794.907C1388.26,799.815 1392.93,803.117 1397.84,802.274C1402.75,801.432 1406.05,796.762 1405.21,791.854C1404.36,786.946 1399.69,783.644 1394.79,784.487ZM1423.54,779.551C1418.63,780.394 1415.33,785.064 1416.17,789.972C1417.01,794.88 1421.68,798.181 1426.59,797.339C1431.5,796.496 1434.8,791.827 1433.96,786.918C1433.11,782.01 1428.44,778.709 1423.54,779.551ZM1088.03,805.736C1082.19,806.738 1078.27,812.29 1079.27,818.126C1080.27,823.962 1085.83,827.888 1091.66,826.886C1097.5,825.884 1101.42,820.331 1100.42,814.496C1099.42,808.66 1093.87,804.734 1088.03,805.736ZM1116.78,800.801C1110.94,801.802 1107.02,807.355 1108.02,813.191C1109.02,819.027 1114.58,822.952 1120.41,821.95C1126.25,820.949 1130.17,815.396 1129.17,809.56C1128.17,803.724 1122.62,799.799 1116.78,800.801ZM1145.53,795.865C1139.69,796.867 1135.77,802.42 1136.77,808.255C1137.77,814.091 1143.33,818.017 1149.16,817.015C1155,816.013 1158.92,810.461 1157.92,804.625C1156.92,798.789 1151.37,794.863 1145.53,795.865ZM1174.28,790.93C1168.44,791.931 1164.52,797.484 1165.52,803.32C1166.52,809.156 1172.08,813.081 1177.91,812.08C1183.75,811.078 1187.67,805.525 1186.67,799.689C1185.67,793.853 1180.12,789.928 1174.28,790.93ZM1203.03,785.994C1197.19,786.996 1193.27,792.549 1194.27,798.384C1195.27,804.22 1200.83,808.146 1206.66,807.144C1212.5,806.142 1216.42,800.59 1215.42,794.754C1214.42,788.918 1208.87,784.992 1203.03,785.994ZM1231.78,781.059C1225.94,782.061 1222.02,787.613 1223.02,793.449C1224.02,799.285 1229.57,803.211 1235.41,802.209C1241.25,801.207 1245.17,795.654 1244.17,789.819C1243.17,783.983 1237.62,780.057 1231.78,781.059ZM1260.53,776.124C1254.69,777.126 1250.77,782.678 1251.77,788.514C1252.77,794.35 1258.32,798.275 1264.16,797.274C1269.99,796.272 1273.92,790.719 1272.92,784.883C1271.91,779.048 1266.36,775.122 1260.53,776.124ZM1289.28,771.188C1283.44,772.19 1279.52,777.743 1280.52,783.579C1281.52,789.415 1287.07,793.34 1292.91,792.338C1298.74,791.336 1302.67,785.784 1301.67,779.948C1300.66,774.112 1295.11,770.187 1289.28,771.188ZM1318.03,766.253C1312.19,767.255 1308.27,772.807 1309.27,778.643C1310.27,784.479 1315.82,788.405 1321.66,787.403C1327.49,786.401 1331.42,780.848 1330.42,775.013C1329.41,769.177 1323.86,765.251 1318.03,766.253ZM1346.78,761.317C1340.94,762.319 1337.02,767.872 1338.02,773.708C1339.02,779.544 1344.57,783.469 1350.41,782.467C1356.24,781.466 1360.17,775.913 1359.17,770.077C1358.16,764.241 1352.61,760.316 1346.78,761.317ZM1375.53,756.382C1369.69,757.384 1365.76,762.937 1366.77,768.772C1367.77,774.608 1373.32,778.534 1379.16,777.532C1384.99,776.53 1388.92,770.978 1387.91,765.142C1386.91,759.306 1381.36,755.38 1375.53,756.382ZM1404.27,751.447C1398.44,752.449 1394.51,758.001 1395.52,763.837C1396.52,769.673 1402.07,773.599 1407.9,772.597C1413.74,771.595 1417.67,766.043 1416.66,760.207C1415.66,754.371 1410.11,750.445 1404.27,751.447ZM1415.09,642.05C1414.82,642.097 1414.64,642.353 1414.69,642.622C1414.73,642.891 1414.99,643.072 1415.26,643.026C1415.53,642.979 1415.71,642.723 1415.66,642.454C1415.62,642.185 1415.36,642.004 1415.09,642.05ZM1041.35,706.21C1041.08,706.256 1040.9,706.512 1040.94,706.781C1040.99,707.05 1041.25,707.231 1041.52,707.185C1041.78,707.139 1041.96,706.883 1041.92,706.614C1041.87,706.345 1041.62,706.164 1041.35,706.21ZM1079.06,753.505C1076.01,754.029 1073.96,756.934 1074.48,759.986C1075.01,763.038 1077.91,765.092 1080.96,764.568C1084.02,764.044 1086.07,761.139 1085.54,758.087C1085.02,755.035 1082.12,752.981 1079.06,753.505ZM1155.65,854.821C1150.74,855.663 1147.44,860.333 1148.28,865.241C1149.13,870.149 1153.8,873.451 1158.7,872.608C1163.61,871.766 1166.91,867.096 1166.07,862.188C1165.23,857.28 1160.56,853.978 1155.65,854.821ZM1184.4,849.885C1179.49,850.728 1176.19,855.398 1177.03,860.306C1177.88,865.214 1182.55,868.515 1187.45,867.673C1192.36,866.83 1195.66,862.16 1194.82,857.252C1193.98,852.344 1189.31,849.043 1184.4,849.885ZM1213.15,844.95C1208.24,845.792 1204.94,850.462 1205.78,855.37C1206.63,860.278 1211.3,863.58 1216.2,862.737C1221.11,861.895 1224.41,857.225 1223.57,852.317C1222.73,847.409 1218.06,844.107 1213.15,844.95ZM1241.9,840.014C1236.99,840.857 1233.69,845.527 1234.53,850.435C1235.38,855.343 1240.05,858.644 1244.95,857.802C1249.86,856.959 1253.16,852.29 1252.32,847.382C1251.48,842.474 1246.81,839.172 1241.9,840.014ZM1270.65,835.079C1265.74,835.922 1262.44,840.592 1263.28,845.5C1264.12,850.408 1268.79,853.709 1273.7,852.867C1278.61,852.024 1281.91,847.354 1281.07,842.446C1280.23,837.538 1275.56,834.237 1270.65,835.079ZM1299.4,830.144C1294.49,830.987 1291.19,835.656 1292.03,840.564C1292.87,845.472 1297.54,848.774 1302.45,847.931C1307.36,847.089 1310.66,842.419 1309.82,837.511C1308.98,832.603 1304.31,829.301 1299.4,830.144ZM1328.15,825.209C1323.24,826.051 1319.94,830.721 1320.78,835.629C1321.62,840.537 1326.29,843.839 1331.2,842.996C1336.11,842.153 1339.41,837.484 1338.57,832.576C1337.73,827.668 1333.06,824.366 1328.15,825.209ZM1356.9,820.273C1351.99,821.116 1348.69,825.785 1349.53,830.693C1350.37,835.602 1355.04,838.903 1359.95,838.06C1364.86,837.218 1368.16,832.548 1367.32,827.64C1366.48,822.732 1361.81,819.431 1356.9,820.273ZM1385.65,815.338C1380.74,816.18 1377.44,820.85 1378.28,825.758C1379.12,830.666 1383.79,833.968 1388.7,833.125C1393.61,832.283 1396.91,827.613 1396.07,822.705C1395.22,817.797 1390.55,814.495 1385.65,815.338ZM1414.39,810.403C1409.49,811.245 1406.19,815.915 1407.03,820.823C1407.87,825.731 1412.54,829.033 1417.45,828.19C1422.36,827.347 1425.66,822.678 1424.82,817.77C1423.97,812.861 1419.3,809.56 1414.39,810.403ZM1193.94,905.478C1188.11,906.48 1184.18,912.033 1185.18,917.869C1186.19,923.704 1191.74,927.63 1197.58,926.628C1203.41,925.626 1207.34,920.074 1206.33,914.238C1205.33,908.402 1199.78,904.477 1193.94,905.478ZM1222.69,900.543C1216.86,901.545 1212.93,907.097 1213.93,912.933C1214.94,918.769 1220.49,922.695 1226.33,921.693C1232.16,920.691 1236.09,915.138 1235.08,909.303C1234.08,903.467 1228.53,899.541 1222.69,900.543ZM1280.19,890.672C1274.36,891.674 1270.43,897.227 1271.43,903.063C1272.43,908.898 1277.99,912.824 1283.82,911.822C1289.66,910.82 1293.58,905.268 1292.58,899.432C1291.58,893.596 1286.03,889.671 1280.19,890.672ZM1308.94,885.737C1303.11,886.739 1299.18,892.291 1300.18,898.127C1301.18,903.963 1306.74,907.889 1312.57,906.887C1318.41,905.885 1322.33,900.333 1321.33,894.497C1320.33,888.661 1314.78,884.735 1308.94,885.737ZM1337.69,880.802C1331.86,881.803 1327.93,887.356 1328.93,893.192C1329.93,899.028 1335.49,902.953 1341.32,901.952C1347.16,900.95 1351.08,895.397 1350.08,889.561C1349.08,883.725 1343.53,879.8 1337.69,880.802ZM1346.83,849.95C1341,850.952 1337.07,856.505 1338.07,862.341C1339.08,868.177 1344.63,872.102 1350.46,871.1C1356.3,870.098 1360.23,864.546 1359.22,858.71C1358.22,852.874 1352.67,848.949 1346.83,849.95ZM1174.34,879.562C1168.5,880.564 1164.58,886.117 1165.58,891.953C1166.58,897.789 1172.13,901.714 1177.97,900.712C1183.8,899.711 1187.73,894.158 1186.73,888.322C1185.72,882.486 1180.17,878.561 1174.34,879.562ZM1203.09,874.627C1197.25,875.629 1193.33,881.181 1194.33,887.017C1195.33,892.853 1200.88,896.779 1206.72,895.777C1212.55,894.775 1216.48,889.223 1215.48,883.387C1214.47,877.551 1208.92,873.625 1203.09,874.627ZM1231.84,869.692C1226,870.694 1222.07,876.246 1223.08,882.082C1224.08,887.918 1229.63,891.844 1235.47,890.842C1241.3,889.84 1245.23,884.287 1244.23,878.451C1243.22,872.616 1237.67,868.69 1231.84,869.692ZM1260.58,864.757C1254.75,865.758 1250.82,871.311 1251.82,877.147C1252.83,882.983 1258.38,886.908 1264.21,885.906C1270.05,884.905 1273.98,879.352 1272.97,873.516C1271.97,867.68 1266.42,863.755 1260.58,864.757ZM1289.33,859.821C1283.5,860.823 1279.57,866.376 1280.57,872.212C1281.58,878.047 1287.13,881.973 1292.96,880.971C1298.8,879.969 1302.72,874.417 1301.72,868.581C1300.72,862.745 1295.17,858.82 1289.33,859.821ZM1318.08,854.886C1312.25,855.888 1308.32,861.44 1309.32,867.276C1310.33,873.112 1315.88,877.038 1321.71,876.036C1327.55,875.034 1331.47,869.481 1330.47,863.645C1329.47,857.81 1323.92,853.884 1318.08,854.886ZM1175.36,906.685C1177.16,907.738 1178.76,909.127 1180.06,910.782C1180.77,908.656 1181.91,906.702 1183.39,905.037C1182.02,905.704 1180.53,906.191 1178.95,906.462C1177.74,906.67 1176.54,906.741 1175.36,906.685ZM1188.52,901.153C1189.89,900.486 1191.38,899.999 1192.96,899.728C1194.17,899.52 1195.38,899.45 1196.56,899.506C1194.75,898.453 1193.15,897.064 1191.86,895.409C1191.14,897.534 1190,899.489 1188.52,901.153ZM1204.11,901.749C1205.91,902.803 1207.51,904.192 1208.81,905.847C1209.52,903.721 1210.66,901.766 1212.14,900.102C1210.77,900.769 1209.28,901.256 1207.7,901.527C1206.49,901.735 1205.29,901.805 1204.11,901.749ZM1217.27,896.218C1218.64,895.551 1220.13,895.064 1221.71,894.793C1222.92,894.585 1224.12,894.514 1225.3,894.57C1223.5,893.517 1221.9,892.129 1220.61,890.474C1219.89,892.599 1218.75,894.554 1217.27,896.218ZM1232.86,896.814C1234.66,897.867 1236.26,899.256 1237.56,900.91C1238.27,898.785 1239.41,896.831 1240.89,895.167C1239.52,895.834 1238.03,896.321 1236.45,896.592C1235.24,896.8 1234.04,896.87 1232.86,896.814ZM1246.02,891.283C1247.39,890.616 1248.88,890.129 1250.46,889.858C1251.67,889.65 1252.87,889.579 1254.05,889.635C1252.25,888.582 1250.65,887.194 1249.35,885.539C1248.64,887.664 1247.5,889.618 1246.02,891.283ZM1261.61,891.879C1263.41,892.932 1265.01,894.32 1266.3,895.975C1267.02,893.85 1268.16,891.896 1269.64,890.231C1268.27,890.899 1266.78,891.385 1265.2,891.656C1263.99,891.864 1262.79,891.935 1261.61,891.879ZM1274.77,886.347C1276.14,885.68 1277.63,885.194 1279.2,884.923C1280.42,884.714 1281.62,884.644 1282.8,884.7C1281,883.647 1279.4,882.258 1278.1,880.604C1277.39,882.729 1276.25,884.683 1274.77,886.347ZM1290.35,886.944C1292.16,887.997 1293.76,889.385 1295.05,891.04C1295.77,888.915 1296.91,886.96 1298.39,885.296C1297.02,885.963 1295.53,886.45 1293.95,886.721C1292.74,886.929 1291.53,887 1290.35,886.944ZM1303.51,881.412C1304.89,880.745 1306.38,880.258 1307.95,879.987C1309.17,879.779 1310.37,879.709 1311.55,879.765C1309.75,878.711 1308.15,877.322 1306.85,875.667C1306.13,877.793 1304.99,879.748 1303.51,881.412ZM1319.1,882.008C1320.9,883.061 1322.5,884.45 1323.8,886.106C1324.52,883.98 1325.66,882.025 1327.14,880.361C1325.77,881.028 1324.28,881.515 1322.7,881.786C1321.49,881.994 1320.28,882.064 1319.1,882.008ZM1332.26,876.477C1333.64,875.81 1335.12,875.323 1336.7,875.052C1337.92,874.844 1339.12,874.773 1340.3,874.829C1338.5,873.776 1336.9,872.387 1335.6,870.732C1334.88,872.857 1333.74,874.812 1332.26,876.477ZM1347.85,877.073C1349.65,878.126 1351.25,879.515 1352.55,881.17C1353.27,879.044 1354.41,877.09 1355.89,875.425C1354.52,876.092 1353.03,876.579 1351.45,876.85C1350.24,877.058 1349.03,877.129 1347.85,877.073ZM1361.01,871.541C1362.39,870.874 1363.88,870.387 1365.45,870.116C1366.67,869.908 1367.87,869.838 1369.05,869.894C1367.25,868.841 1365.65,867.452 1364.35,865.797C1363.63,867.923 1362.49,869.877 1361.01,871.541ZM1196.66,932.593C1197.31,933.057 1197.92,933.561 1198.5,934.105C1198.85,933.429 1199.24,932.776 1199.67,932.15C1199.3,932.238 1198.94,932.314 1198.56,932.378C1197.93,932.487 1197.29,932.558 1196.66,932.593ZM1209.76,924.895C1210.38,924.723 1211,924.58 1211.64,924.47C1212.56,924.313 1213.47,924.227 1214.37,924.209C1213.29,923.374 1212.31,922.406 1211.46,921.324C1211.04,922.583 1210.47,923.781 1209.76,924.895ZM1296.01,910.089C1296.62,909.917 1297.25,909.774 1297.89,909.665C1298.8,909.508 1299.71,909.422 1300.61,909.403C1299.54,908.568 1298.56,907.601 1297.71,906.519C1297.29,907.777 1296.71,908.975 1296.01,910.089ZM1311.66,912.852C1312.3,913.316 1312.92,913.82 1313.49,914.364C1313.84,913.688 1314.23,913.035 1314.66,912.409C1314.3,912.497 1313.93,912.573 1313.56,912.637C1312.92,912.746 1312.29,912.817 1311.66,912.852ZM1324.76,905.154C1325.37,904.981 1326,904.839 1326.64,904.729C1327.55,904.572 1328.46,904.486 1329.36,904.467C1328.29,903.632 1327.31,902.665 1326.46,901.583C1326.04,902.841 1325.46,904.04 1324.76,905.154ZM1340.41,907.917C1341.05,908.38 1341.67,908.885 1342.25,909.428C1342.59,908.752 1342.98,908.099 1343.41,907.473C1343.05,907.561 1342.68,907.637 1342.31,907.701C1341.67,907.811 1341.04,907.882 1340.41,907.917ZM1353.51,900.218C1354.12,900.046 1354.75,899.904 1355.39,899.794C1356.3,899.637 1357.21,899.551 1358.11,899.532C1357.04,898.697 1356.06,897.729 1355.21,896.647C1354.79,897.906 1354.21,899.105 1353.51,900.218Z" style="fill:rgb(233,229,40);fill-opacity:0.29;"/>
                    </g>
                    <path d="M1439.13,728.749C1436.23,745.096 1431.65,779.213 1448.21,811.184C1365.08,789.516 1324.06,780.424 1300.32,793.813C1276.58,807.203 1255.32,844.819 1250.71,901.426C1240.92,826.27 1199.92,794.122 1156.46,789.757C1113.01,785.392 1076.19,815.145 1062.81,828.537C1069.79,806.433 1073.14,771.711 1071.86,747.708C1070.58,723.704 1056.62,691.543 1040.67,654.501C1085.87,686.755 1148.91,660.815 1159.01,652.216C1169.11,643.617 1191.42,600.506 1183.43,555.474C1233.3,627.085 1250.58,623.836 1273.52,627.133C1318.84,622.297 1348.6,595.019 1381.06,559.818C1380.26,605.298 1378.86,613.979 1392.89,632.637C1406.92,651.295 1458.24,650.89 1481.76,642.002C1444.63,676.832 1442.04,712.403 1439.13,728.749ZM1070.69,685.968L1081.32,743.775L1080.04,806.598L1138.44,775.563L1221.38,785.196L1431.57,734.486L1449.98,670.403L1445.69,655.603L1363.88,658.817L1070.69,685.968Z" style="fill:rgb(221,227,13);stroke:rgb(227,213,128);stroke-width:2.31px;"/>
                    <path id="STUNNED" d="M1338.81,597.285C1350.31,589.579 1363.21,580.358 1378.23,569.651C1373.26,593.505 1376.29,611.186 1383.93,623.938C1380.15,620.357 1377.02,616.201 1375.6,611.45C1377.79,621.599 1384.27,628.54 1391.01,633.166C1410.81,653.626 1445.49,655.582 1467.58,649.098C1439.85,687.699 1419.08,751.77 1443.56,807.629C1409.43,787.926 1324.76,773.046 1295.15,791.624C1268.7,808.217 1249.27,852.136 1249.27,891.541C1249.27,852.136 1222.89,804.394 1176.98,790.075C1144.9,780.066 1123.03,778.263 1069.34,816.603C1076.08,787.772 1078.93,770.498 1076.91,753.348C1072.19,713.216 1072.53,707.711 1053.6,672.141C1104.34,677.769 1132.31,673.27 1154.16,659.977C1183.49,642.139 1185.32,620.927 1189.56,566.316C1215.35,606.355 1228.85,624.826 1265.24,626.186C1283.94,626.885 1300.73,620.755 1321.95,608.052C1316.5,612.561 1309.85,617.655 1301.78,623.286C1321.94,612.002 1332.91,603.46 1338.81,597.285ZM1233.83,687.274L1233.67,713.931C1233.67,713.931 1231.95,717.193 1231.62,720.154C1231.29,723.116 1232.19,730.109 1232.19,730.109L1229.57,742.578C1229.57,742.578 1236.42,747.552 1239.4,746.656C1242.39,745.761 1247.12,742.546 1247.12,742.546L1248.27,725.438L1251.7,730.887L1254.99,731.097L1254.3,733.765L1252.29,734.414L1255.6,742.917C1255.6,742.917 1270.08,742.305 1272.26,740.962C1274.44,739.618 1274.08,723.535 1274.08,723.535L1276.36,720.703C1276.36,720.703 1281.93,684.658 1282.14,679.385C1282.24,677.072 1278.82,677.084 1278.82,677.084L1271.53,680.256L1261.42,680.593L1263.03,711.854L1255.23,685.107L1244.06,686.787L1242.63,689.671L1240.34,686.481L1233.83,687.274ZM1123.42,711.741C1123.42,711.741 1113.82,713.309 1108.73,713.95C1103.64,714.591 1096.87,718.525 1096.87,718.525L1094.37,722.305C1094.37,722.305 1093.23,719.224 1089.58,721.201C1085.93,723.178 1085.11,727.063 1084.21,730.564C1083.31,734.065 1082.32,748.67 1082.32,748.67L1086.4,748.834C1086.4,748.834 1086.18,752.367 1087.36,754.072C1088.55,755.776 1100.76,753.956 1103.12,754.001C1105.49,754.046 1108.19,751.754 1108.19,751.754C1108.19,751.754 1106.89,754.875 1100.68,761.754C1094.48,768.632 1083.78,764.47 1083.12,767.308C1082.46,770.146 1087.08,771.593 1087.46,773.704C1087.86,775.815 1084.32,774.552 1084.02,777.731C1083.72,780.91 1081.4,779.105 1087.42,781.618C1093.44,784.13 1120.46,768.219 1120.46,768.219L1115.89,766.144C1115.89,766.144 1118.03,766.082 1120.45,765.181C1122.87,764.279 1123.12,758.254 1125.38,751.053C1127.64,743.852 1122.7,739.329 1117.9,737.368C1113.11,735.407 1103.16,739.599 1101.54,734.118C1100.81,731.686 1104.82,730.666 1107.26,729.042C1109.69,727.417 1121.06,728.593 1122.43,726.189C1123.81,723.786 1123.15,722.628 1123.15,722.628L1120.69,719.391L1123.56,717.282L1123.42,711.741ZM1398,665.872L1397.14,679.985L1399.91,680.69L1399.92,687.167L1397.8,687.095L1393.89,710.764L1390.24,715.158L1392.32,717.425L1390.44,719.885L1389.37,726.878L1420.27,724.632L1430.41,719.703L1431.46,714.916L1435.97,711.475C1435.97,711.475 1437.25,703.73 1437.18,701.216C1437.11,698.702 1442.55,693.264 1442.55,693.264L1443.11,688.062L1440.38,686.426L1443.08,684.849L1445.7,675.607L1443.07,675.137C1443.07,675.137 1443.14,669.413 1443.67,667.099C1444.21,664.785 1439.12,663.601 1439.12,663.601L1436.19,665.216L1398,665.872ZM1418.13,680.756L1424.61,680.446L1416.84,711.734L1411.42,712.819L1412.25,700.794L1418.13,680.756ZM1347.97,669.352L1348.53,673.145L1346,675.919L1344.53,679.725L1347.46,682.907L1345.42,698.96L1347.52,699.763L1347.66,702.336L1345.25,702.845L1339.73,729.874L1342.71,731.625L1347.28,729.82L1349.89,733.054L1379.75,728.213L1383.29,713.996L1360.86,714.78L1363.44,708.808C1363.44,708.808 1377.81,707.004 1378.64,705.721C1379.48,704.437 1379.29,702.817 1379.29,702.817L1379.85,692.154L1365.51,691.012L1369.53,682.53L1385.6,681.395L1385.05,678.53L1389.71,673.5L1388.87,669.043L1389.39,666.138L1347.97,669.352ZM1288.41,679.212L1288.25,705.87C1288.25,705.87 1286.53,709.132 1286.2,712.093C1285.87,715.054 1286.77,722.048 1286.77,722.048L1284.15,734.517C1284.15,734.517 1290.99,739.491 1293.98,738.595C1296.97,737.699 1301.7,734.484 1301.7,734.484L1302.85,717.376L1306.28,722.826L1309.56,723.036L1308.87,725.703L1306.86,726.353L1310.17,734.856C1310.17,734.856 1324.66,734.244 1326.84,732.901C1329.02,731.557 1328.66,715.474 1328.66,715.474L1330.94,712.642C1330.94,712.642 1336.51,676.597 1336.72,671.324C1336.82,669.01 1333.4,669.023 1333.4,669.023L1326.1,672.195L1316,672.532L1317.6,703.793L1309.8,677.045L1298.64,678.726L1297.21,681.61L1294.92,678.419L1288.41,679.212ZM1178.12,694.145L1175.36,745.58L1177.46,748.949L1181.62,747.964C1181.62,747.964 1179.8,752.334 1181.67,754.051C1183.54,755.768 1191.47,756.431 1191.47,756.431L1191.23,754.319C1191.23,754.319 1195.39,755.057 1200.36,754.613C1214.56,753.345 1220.79,740.408 1220.79,740.408L1220.12,728.71L1220.03,725.521L1222.15,722.381L1223.85,690.569L1214.87,691.269L1215.8,695.482L1213.16,696.434L1213.07,693.181L1204.41,693.314L1203.92,711.949L1206.27,716.856L1203.8,717.158L1203.26,738.327L1196.6,738.218C1196.6,738.218 1193.41,721.463 1193.31,718.099C1193.21,714.735 1197.56,700.909 1197.56,700.909L1197.57,693.653L1194.44,692.607L1191.2,695.332L1178.12,694.145ZM1128.93,709.105L1130.6,710.835L1128.43,711.885L1128.29,715.539L1131.6,718.874L1132.85,721.837L1136.35,720.108L1140.76,720.19L1139.97,764.759L1143.01,767.74L1149.58,763.946L1150.84,765.877L1153.55,766.017L1159.26,762.408L1160.04,728.696L1157.29,726.529L1159.05,723.269L1159.79,715.638L1169.31,712.782L1169.21,709.572L1172.75,708.431L1172.71,704.151L1170.35,702.535L1172.03,701.141L1171.53,697.361L1128.93,709.105Z" style="stroke:black;stroke-width:2.31px;"/>
                </g>
            </g>
        </g>
    </g>
</svg>
