<?xml version="1.0" encoding="UTF-8" standalone="no"?>
<!DOCTYPE svg PUBLIC "-//W3C//DTD SVG 1.1//EN" "http://www.w3.org/Graphics/SVG/1.1/DTD/svg11.dtd">
<svg width="100%" height="100%" viewBox="0 0 304 282" version="1.1" xmlns="http://www.w3.org/2000/svg" xmlns:xlink="http://www.w3.org/1999/xlink" xml:space="preserve" xmlns:serif="http://www.serif.com/" style="fill-rule:evenodd;clip-rule:evenodd;stroke-linecap:round;stroke-linejoin:round;stroke-miterlimit:1.5;">
    <g transform="matrix(1,0,0,1,-1566.41,-577.699)">
        <g transform="matrix(1,0,0,1,452.63,-398.306)">
            <rect id="Artboard9" x="1113.78" y="976.005" width="303.059" height="281.617" style="fill:none;"/>
            <g id="Artboard91" serif:id="Artboard9">
                <g id="tough" transform="matrix(1,0,0,1,6.36804,-0.145969)">
                    <g transform="matrix(1.09024,0,0,1.09024,-104.815,-49.7386)">
                        <circle cx="1255.09" cy="1068.96" r="127.19" style="fill:url(#_Radial1);"/>
                    </g>
                    <path d="M1161.51,1180.87L1161.01,1179.45L1140.5,1176.23C1137.37,1169.9 1134.72,1163.31 1132.59,1156.48L1133.69,1149.61L1131.9,1136.8L1136.28,1145.2L1141.31,1145L1134.58,1135.71L1131.98,1119.06L1135.24,1103.59L1134.52,1089.86L1130.6,1081.68C1132.39,1074.62 1134.73,1067.78 1137.58,1061.19L1136.46,1064.5L1151.31,1056.18L1159.14,1053.77L1171.38,1040.49L1167.74,1028.05L1176.72,1021.57L1182.08,1018.35L1189.75,1017.65L1208.31,1005.57L1223.48,984.258C1230.67,982.058 1238.11,980.432 1245.75,979.435L1250.59,981.132L1255.22,984.82L1267.97,981.678L1278.87,983.466L1290.36,989.408L1307.29,991.938L1317.48,989.242C1323.45,991.794 1329.21,994.759 1334.72,998.099L1348.64,1016.73L1350.69,1036.03L1355.2,1040.63L1313.85,1041.83L1297.06,1045.3L1280.51,1043.46L1266,1041.59L1229.05,1047.5L1246.73,1052.24L1205.19,1053.95L1141.72,1068.31L1206.58,1057.96L1247.49,1059.17L1255.09,1052.89L1248.25,1048.55L1267.31,1046.72L1283.26,1049.32L1274.15,1051.94L1296.99,1056.77L1356.43,1060.24L1374.55,1067.14L1375.34,1068.31L1382.52,1075.04L1383.98,1081.89L1377.9,1081.88L1375.06,1083.92L1374.3,1082.46L1369.94,1082.74L1366.43,1100.32L1359.18,1099.71C1359.18,1099.71 1362.82,1079.49 1362.32,1078.23C1361.82,1076.97 1351.7,1077.98 1351.7,1077.98L1346.42,1076.28L1339.99,1103.35L1343.58,1105.51L1337.7,1108.78L1333.24,1136.8L1337.36,1136.52L1340.31,1134.03L1340.22,1136.33C1340.22,1136.33 1348.54,1137.54 1350.38,1136.3C1352.22,1135.05 1356.13,1117.4 1356.13,1117.4L1361.78,1117.24L1354.92,1140.95L1359.95,1140.79L1366.42,1137.1L1366.65,1139.34C1366.65,1139.34 1369.75,1139.35 1371.62,1139.6C1373.5,1139.85 1374.88,1138.1 1374.88,1138.1L1385.42,1088.66L1386.94,1095.81L1394.87,1100.52L1400.9,1112.13C1400.93,1113.27 1400.94,1114.41 1400.94,1115.56C1400.94,1144.48 1391.98,1171.32 1376.68,1193.46L1357.1,1193.75L1345.83,1198.71L1343.82,1207.65L1337.42,1218.26L1325.65,1225.91L1315.83,1225.05L1304.42,1232.57L1292.75,1234.92L1278.72,1234.39L1264.55,1244.8L1257.56,1248.38L1251.74,1246.59L1241.67,1251.09C1209.36,1245.88 1180.81,1229.37 1160.2,1205.76L1174.89,1215.35L1179.08,1214L1186.04,1220.39L1184.98,1210.3L1174.21,1208.51L1159.8,1196.28L1156.03,1185.06L1165.3,1191.6L1163.29,1185.92L1188.39,1179.4L1210.29,1186.76L1222.42,1177.33L1241.12,1179.32L1245.99,1186.01L1245.36,1191.05L1249.76,1188.22L1246.59,1178.11L1252.85,1172.06L1255.29,1177.07L1255.75,1186.69L1272.16,1189.12L1284.24,1174.93L1269.63,1183.66L1258.5,1182.82L1258.54,1179.62L1266.7,1179.81L1250.92,1166.86L1233.57,1174.03L1219.3,1173.81L1208.88,1182.33L1186.31,1176.33L1161.51,1180.87ZM1334.72,998.099C1335.66,998.668 1336.59,999.248 1337.51,999.839L1334.72,998.099ZM1223.48,984.258L1206.26,1002.66L1190.15,1013.34L1183.58,1013.39L1165.39,1025.83L1164.5,1032.71L1163.26,1044.12L1156.22,1051.68L1148.5,1052.72L1144.83,1052.97L1139.37,1057.22C1148.26,1038.33 1161.33,1021.79 1177.39,1008.8L1186.87,1006.78L1198.45,1000.55L1203.24,992.274C1209.71,989.09 1216.48,986.401 1223.48,984.258ZM1188.42,1223.05L1188.89,1226.32L1197.43,1228.6L1199.23,1232.68L1206.08,1235.43L1217.22,1242.52L1228.94,1241.46L1236.5,1243.36L1232.69,1237.2L1218.93,1239.79L1209.34,1233.66L1202.41,1231.46L1199.78,1225.55L1188.42,1223.05ZM1296.75,1087.43L1296.23,1091.33L1291.63,1091.7C1291.63,1091.7 1288.06,1102.83 1286.26,1110.38C1284.45,1117.92 1285.49,1128.84 1285.49,1128.84L1289.12,1128.51C1289.12,1128.51 1287.22,1131.23 1286.1,1133.28C1284.97,1135.32 1286.63,1139.92 1286.63,1139.92C1286.63,1139.92 1316.94,1139.08 1318.23,1139.12C1319.52,1139.17 1321.22,1134.14 1321.22,1134.14C1321.22,1134.14 1323.77,1132.24 1326.6,1130.78C1329.43,1129.32 1333.49,1107.13 1332.48,1105.39C1331.47,1103.64 1327.28,1106.09 1323.73,1106.62C1320.17,1107.14 1309.5,1107.41 1309.5,1107.41L1306.91,1119.54L1309.56,1120.17L1311.01,1118.41C1311.01,1118.41 1313.52,1118.06 1314.51,1119.56C1315.49,1121.07 1310.88,1125.01 1310.36,1125.9C1309.84,1126.79 1303.72,1126.36 1303.25,1125.65C1302.79,1124.94 1301.94,1114.64 1301.91,1112.12C1301.89,1109.59 1307.38,1096.32 1308.65,1095.16C1309.92,1094 1315.49,1095.24 1315.49,1095.24C1315.49,1095.24 1312.8,1102.48 1314.83,1102.54C1329.11,1102.93 1332.91,1100.01 1332.91,1100.01C1332.91,1100.01 1334.78,1085.76 1334.1,1084.31C1333.42,1082.86 1328.99,1081.24 1328.73,1081.09C1328.46,1080.94 1322.34,1081.94 1315.63,1081.25C1308.91,1080.55 1296.75,1087.43 1296.75,1087.43ZM1143.89,1097.35L1145.55,1099.08L1143.39,1100.13L1143.24,1103.79L1146.55,1107.12L1147.81,1110.09L1151.31,1108.36L1155.71,1108.44L1154.93,1153.01L1157.96,1155.99L1164.53,1152.19L1165.79,1154.12L1168.51,1154.27L1174.22,1150.66L1174.99,1116.94L1172.24,1114.78L1174,1111.52L1174.75,1103.89L1184.26,1101.03L1184.17,1097.82L1187.71,1096.68L1187.67,1092.4L1185.31,1090.78L1186.98,1089.39L1186.49,1085.61L1143.89,1097.35ZM1193.18,1095.34C1189.43,1099.87 1190.4,1098.9 1189.19,1100.7C1187.98,1102.49 1188.1,1127.64 1187.73,1129.43C1187.35,1131.23 1188.4,1133.72 1188.4,1133.72L1189.84,1137.01C1189.84,1137.01 1187.26,1139.51 1187.61,1140.79C1187.96,1142.08 1197.36,1150.34 1198.86,1150.46C1200.37,1150.59 1223.85,1143.3 1223.85,1143.3L1224.13,1139.01L1227.5,1136.76L1228.12,1131.82L1229.37,1130.09C1229.37,1130.09 1230.42,1116.63 1230.61,1113.46C1230.8,1110.29 1229.14,1095.76 1229.14,1095.76L1228.04,1092.03L1223.67,1091.3L1222.44,1088.58L1220.29,1087.47L1214.01,1088.46L1213.12,1087.11C1213.12,1087.11 1196.92,1090.82 1193.18,1095.34ZM1207.45,1103.77C1207.45,1103.77 1210.87,1102.69 1211.23,1104.57C1211.59,1106.45 1213.49,1110.16 1213.49,1110.16C1213.49,1110.16 1211.58,1112 1211.64,1113.09C1211.71,1114.17 1212.93,1116.29 1212.93,1116.29C1212.93,1116.29 1213.99,1119.36 1213.02,1121.15C1212.05,1122.94 1211.72,1125.55 1211.72,1125.55C1211.72,1125.55 1211.31,1132.57 1210.35,1133.31C1209.39,1134.05 1207.71,1134.55 1207.19,1133.61C1206.67,1132.66 1205.79,1123.18 1205.79,1123.18L1203.29,1121.68C1203.29,1121.68 1202.23,1118.89 1202.93,1116.46C1203.64,1114.02 1205,1111.34 1205,1111.34L1205.01,1104.93L1207.45,1103.77ZM1237.99,1084.87L1235.23,1136.31L1237.33,1139.68L1241.49,1138.69C1241.49,1138.69 1239.67,1143.06 1241.54,1144.78C1243.4,1146.5 1251.34,1147.16 1251.34,1147.16L1251.1,1145.05C1251.1,1145.05 1255.26,1145.79 1260.23,1145.34C1274.43,1144.07 1280.66,1131.14 1280.66,1131.14L1279.99,1119.44L1279.9,1116.25L1282.02,1113.11L1283.72,1081.3L1274.74,1082L1275.67,1086.21L1273.03,1087.16L1272.94,1083.91L1264.28,1084.04L1263.79,1102.68L1266.13,1107.58L1263.67,1107.89L1263.13,1129.06L1256.47,1128.95C1256.47,1128.95 1253.28,1112.19 1253.18,1108.83C1253.08,1105.46 1257.42,1091.64 1257.42,1091.64L1257.44,1084.38L1254.31,1083.34L1251.07,1086.06L1237.99,1084.87ZM1373.2,1198.29C1348.12,1231.42 1308.37,1252.84 1263.66,1252.84C1258.4,1252.84 1253.21,1252.54 1248.1,1251.97L1252.96,1250L1262.1,1250.33L1273.33,1244.14L1282.75,1238.12L1290.08,1239.11L1296.46,1241.26L1307.41,1238.27L1319.12,1227.29L1326.46,1228.76L1332.69,1224.76L1337.02,1224.05L1344.28,1221.2L1348.76,1207.47L1358.05,1197.05L1373.2,1198.29ZM1358.25,1043.74L1359.68,1045.2L1361.99,1048.6L1295.19,1051.52L1313.82,1045.95L1352.11,1044.76L1358.25,1043.74ZM1388.61,1058.64C1394.55,1071.66 1398.52,1085.76 1400.13,1100.57L1395.2,1093.11L1390.64,1089.64L1386.43,1071.52L1380.27,1063.07L1365.98,1040.95L1355.66,1030.42L1353.42,1015.19L1348.26,1007.47C1353.96,1011.93 1359.29,1016.84 1364.21,1022.13L1365.96,1030.53L1373.7,1042.26L1383.4,1054.36L1388.61,1058.64L1388.61,1058.64Z" style="stroke:black;stroke-width:1.46px;"/>
                </g>
            </g>
        </g>
    </g>
    <defs>
        <radialGradient id="_Radial1" cx="0" cy="0" r="1" gradientUnits="userSpaceOnUse" gradientTransform="matrix(254.379,0,0,254.379,1127.9,1068.96)"><stop offset="0" style="stop-color:rgb(232,183,0);stop-opacity:1"/><stop offset="0.52" style="stop-color:rgb(207,103,21);stop-opacity:1"/><stop offset="1" style="stop-color:rgb(198,74,28);stop-opacity:1"/></radialGradient>
    </defs>
</svg>
